<?xml version="1.0" encoding="utf-8"?>
<!-- Generator: Adobe Illustrator 21.0.0, SVG Export Plug-In . SVG Version: 6.00 Build 0)  -->
<svg version="1.1" id="Capa_1" xmlns="http://www.w3.org/2000/svg" xmlns:xlink="http://www.w3.org/1999/xlink" x="0px" y="0px"
	 viewBox="0 0 95.9 94.3" style="enable-background:new 0 0 95.9 94.3;" xml:space="preserve">
<style type="text/css">
	.st0{fill:#FFFFFF;}
	.st1{fill-rule:evenodd;clip-rule:evenodd;fill:#FFFFFF;}
	.st2{fill:#CDD5F9;}
	.st3{fill:#DCF8F9;}
</style>
<title>cortplot</title>
<g>
	<g>
		<path class="st0" d="M15.8,46.6l0,7.8l2.1,0l0-4.4c0,0,0.1-1.9,1.5-2.2c0,0,1.2-0.3,1.3,0.9l0,5.7l2,0l0-6.4c0,0-0.1-2-2.5-2
			c0,0-2-0.1-2.7,1.7l0.1-1.5L15.8,46.6L15.8,46.6z"/>
		<path class="st0" d="M29.5,46.3l-0.2,1.8c0,0-2.1-0.6-2.8,0.2c0,0-0.9,1-0.6,3c0,0,0.3,1.9,2.4,1.5l1.1-0.3l0.1,1.7
			c0,0-1.1,0.5-2.7,0.4c-1.6-0.1-2.7-1.4-3-2.7c-0.6-3,0.9-4.7,0.9-4.7s1-1.1,3-1.1h0.2L29.5,46.3L29.5,46.3z"/>
		<path class="st1" d="M12.5,50.9c0,0-2.1-0.1-2.6,0.8c0,0-0.4,0.5,0.1,1.1c0.4,0.5,1.4,0.3,1.4,0.3s0.9-0.1,1.1-1.1l0.1-0.3
			L12.5,50.9L12.5,50.9z M8.5,46.6v1.7c0,0,1.4-0.7,2.5-0.6c0,0,1.3,0,1.6,0.8l0,1.1c0,0-3-0.1-3.7,0.9c0,0-1.7,1.3-0.7,3.4
			c0,0,0.6,0.9,1.9,0.9c0,0,1.8,0.2,2.6-1.5l0.1,0l0,1.4l1.9,0l-0.1-6.1c0,0-0.1-1.8-1.9-2.1c0,0-2.2-0.5-3.9,0.2L8.5,46.6L8.5,46.6
			z"/>
		<path class="st1" d="M2.1,49.8v3l1.9,0c0,0,1.1-0.3,1.2-1.4c0,0,0.2-1.3-1.1-1.6L2.1,49.8L2.1,49.8z M2.1,45.4l0,2.9h1.5
			c0,0,1.4-0.2,1.5-1.4c0,0,0.1-1.1-1.1-1.5L2.1,45.4L2.1,45.4z M0.1,43.8v10.7l3.9,0c0,0,3.1-0.2,3.2-2.6c0,0,0.4-2.6-1.8-3
			c0,0,1.6-0.6,1.6-2.3c0,0,0.2-2.3-2.4-2.7L0.1,43.8L0.1,43.8z"/>
		<path class="st1" d="M34.1,47.8c0,0-1.6-0.1-2,1.6c-0.3,1.5,0,2.8,0.9,3.3c0,0,1,0.4,1.8-0.1c0.7-0.5,1-1.4,0.9-3.2
			c-0.1-1.5-1.5-1.6-1.5-1.6H34.1L34.1,47.8z M34,46c0,0-3.9,0-4,4.1c-0.2,4.1,2.5,4.5,3.8,4.5c1.1,0,4-0.8,4.1-4.4
			c0-3.7-2-3.9-3.7-4.2L34,46L34,46z"/>
		<path class="st1" d="M45.8,47.8c0,0-1.6-0.1-2,1.6c-0.3,1.5,0,2.8,0.9,3.3c0,0,1,0.4,1.8-0.1c0.7-0.5,1-1.4,0.9-3.2
			c-0.1-1.5-1.5-1.6-1.5-1.6H45.8L45.8,47.8z M45.7,46c0,0-3.9,0-4,4.1c-0.2,4.1,2.5,4.5,3.8,4.5c1.1,0,4-0.8,4.1-4.4
			c0-3.7-2-3.9-3.7-4.2L45.7,46L45.7,46z"/>
		<path class="st1" d="M79,50.9c0,0-2.1-0.1-2.6,0.8c0,0-0.4,0.5,0.1,1.1c0.4,0.5,1.4,0.3,1.4,0.3s0.9-0.1,1.1-1.1l0.1-0.3L79,50.9
			L79,50.9z M75,46.6v1.7c0,0,1.4-0.7,2.5-0.6c0,0,1.3,0,1.6,0.8l0,1.1c0,0-3-0.1-3.7,0.9c0,0-1.7,1.3-0.7,3.4c0,0,0.6,0.9,1.9,0.9
			c0,0,1.8,0.2,2.6-1.5l0.1,0l0,1.4l1.9,0l-0.1-6.1c0,0-0.1-1.8-1.9-2.1c0,0-2.2-0.5-3.9,0.2L75,46.6L75,46.6z"/>
		<polygon class="st0" points="38.8,43.4 40.8,42.9 40.8,54.5 38.8,54.5 38.8,43.4 		"/>
		<path class="st0" d="M50.6,46.6l1.9-0.4l-0.1,1.5c0.8-1.8,2.7-1.7,2.7-1.7c1.5,0,2.1,0.8,2.3,1.4c0.8-1.5,2.6-1.4,2.6-1.4
			c2.3,0,2.5,2,2.5,2l0,6.4l-2,0l0-5.7c-0.2-1.2-1.3-0.9-1.3-0.9c-1.1,0.2-1.4,1.4-1.5,1.9l0,4.7h0l-2,0l0-5.7
			c-0.2-1.2-1.3-0.9-1.3-0.9c-1.4,0.3-1.5,2.2-1.5,2.2l0,4.4l-2.1,0L50.6,46.6L50.6,46.6z"/>
		<path class="st1" d="M65.6,52.9l0-3.3c0,0,0.1-1.3,1.5-1.5c0,0,1-0.3,1.4,1.2c0,0,0.3,0.9,0,2.2c0,0-0.2,1.2-1.1,1.4
			c0,0-0.9,0.2-1.7,0L65.6,52.9L65.6,52.9z M65.5,42.9c0,0-1.6,0.2-2,0.5l0,10.8c0,0,2.6,0.6,4.6,0.2c0,0,2.8-0.6,2.5-4.6
			c0,0,0.2-3.3-2.8-3.4c0,0-1.7-0.1-2.3,1.3L65.5,42.9L65.5,42.9z"/>
		<path class="st0" d="M73.7,46.3v8.1l-2.2,0l0-8.1H73.7L73.7,46.3z M71.3,43.9c0-0.7,0.6-1.3,1.3-1.3c0.7,0,1.3,0.6,1.3,1.3
			c0,0.7-0.6,1.3-1.3,1.3C71.9,45.2,71.3,44.6,71.3,43.9L71.3,43.9z"/>
	</g>
	<path class="st0" d="M79,34.1c0.4-0.3,5.4-2,13-1.7c0,0,0.5,0.1,0.8,0.6l0.8,1.7c0,0,0.4,0.5-0.2,0.6c0,0-5.7,0.3-7.5,0.7
		c-1.8,0.3-5.4,1.2-5.4,1.2s-0.5,0.2-0.8-0.2l-0.9-2.3C78.8,34.7,78.6,34.4,79,34.1L79,34.1z"/>
	<path class="st2" d="M76.4,39.6c0.4-0.3,10.2-3.7,17.8-3.4c0,0,0.4,0,0.6,0.5l0.8,2.2c0,0,0.3,0.5-0.4,0.7c0,0-7.6,1.4-9.7,1.9
		c-2.8,0.7-7.6,2.3-7.6,2.3s-0.7,0.2-1-0.4l-0.8-2.8C76.2,40.7,76,39.9,76.4,39.6L76.4,39.6z"/>
	<path class="st3" d="M83.2,43.2c0.4-0.3,3.2-1.3,10.7-2.6c0,0,0.8-0.2,1,0.3l1,2.8c0,0,0.3,0.6-0.6,1c0,0-3,1.2-4.7,1.7
		c-1.9,0.7-5.2,2-5.2,2s-0.8,0.3-1.1-0.6L83,43.9C83,43.9,82.9,43.4,83.2,43.2L83.2,43.2z"/>
	<g>
		<g>
			<path class="st0" d="M27.8,60.9h-0.3v-0.5c-0.3,0.3-0.6,0.6-1,0.6c-0.2,0-0.7-0.1-0.7-0.8v-2.3H26v2.2c0,0.3,0.1,0.6,0.5,0.6
				c0.4,0,0.7-0.3,0.9-0.6v-2.2h0.3V60.9z"/>
			<path class="st0" d="M28.7,59.4c0,0.5,0.1,1.2,0.9,1.2c0.5,0,0.7-0.4,0.8-0.6l0.3,0.1c-0.3,0.6-0.7,0.7-1,0.7c-1,0-1.2-1-1.2-1.6
				c0-0.9,0.5-1.5,1.2-1.5c0.8,0,1.1,0.7,1.1,1.5v0.2H28.7z M30.3,59.2c0-0.7-0.3-1.1-0.8-1.1c-0.4,0-0.8,0.4-0.8,1.1H30.3z
				 M30,56.8l-0.7,0.7h-0.3l0.5-0.7H30z"/>
			<path class="st0" d="M32.7,57.3l0.3-0.1v0.9h0.7v0.3H33v1.7c0,0.4,0.1,0.6,0.3,0.6c0.1,0,0.3,0,0.4-0.1v0.3
				c-0.1,0.1-0.3,0.1-0.4,0.1c-0.6,0-0.6-0.4-0.6-0.8v-1.8h-0.4v-0.3h0.4V57.3z"/>
			<path class="st0" d="M34.1,58.6c0.1-0.4,0.4-0.7,1-0.7c0.8,0,0.9,0.5,0.9,1v1.3c0,0.3,0,0.7,0,0.7h-0.3l0-0.5
				c-0.2,0.3-0.5,0.5-1,0.5c-0.5,0-0.8-0.4-0.8-0.8c0-0.9,0.8-1,1.6-1h0.2c0-0.5,0-1-0.7-1c-0.5,0-0.6,0.3-0.7,0.6L34.1,58.6z
				 M35.7,59.3h-0.2c-0.7,0-1.3,0.1-1.3,0.8c0,0.4,0.3,0.6,0.6,0.6c0.4,0,0.6-0.2,0.9-0.6V59.3z"/>
			<path class="st0" d="M36.7,57.9H37v0.5c0.3-0.3,0.6-0.6,1-0.6c0.2,0,0.7,0.1,0.7,0.8v2.3h-0.3v-2.2c0-0.3-0.1-0.6-0.5-0.6
				c-0.4,0-0.7,0.3-0.9,0.6v2.2h-0.3V57.9z"/>
			<path class="st0" d="M40.8,58.6c0.1-0.4,0.4-0.7,1-0.7c0.8,0,0.9,0.5,0.9,1v1.3c0,0.3,0,0.7,0,0.7h-0.3l0-0.5
				c-0.2,0.3-0.5,0.5-1,0.5c-0.5,0-0.8-0.4-0.8-0.8c0-0.9,0.8-1,1.6-1h0.2c0-0.5,0-1-0.7-1c-0.5,0-0.6,0.3-0.7,0.6L40.8,58.6z
				 M42.4,59.3h-0.2c-0.7,0-1.3,0.1-1.3,0.8c0,0.4,0.3,0.6,0.6,0.6c0.4,0,0.6-0.2,0.9-0.6V59.3z"/>
			<path class="st0" d="M43.5,56.9h0.3v4h-0.3V56.9z"/>
			<path class="st0" d="M44.7,57.3l0.3-0.1v0.9h0.7v0.3H45v1.7c0,0.4,0.1,0.6,0.3,0.6c0.1,0,0.3,0,0.4-0.1v0.3
				c-0.1,0.1-0.3,0.1-0.4,0.1c-0.6,0-0.6-0.4-0.6-0.8v-1.8h-0.4v-0.3h0.4V57.3z"/>
			<path class="st0" d="M47.2,57.8c1,0,1.2,1,1.2,1.6c0,0.8-0.3,1.6-1.2,1.6c-0.9,0-1.2-0.8-1.2-1.6C46,58.8,46.2,57.8,47.2,57.8z
				 M47.2,60.7c0.5,0,0.9-0.5,0.9-1.4c0-0.6-0.2-1.2-0.9-1.2c-0.6,0-0.9,0.6-0.9,1.2C46.3,60.2,46.6,60.7,47.2,60.7z"/>
			<path class="st0" d="M52.3,61.9H52v-1.4h0c-0.2,0.3-0.4,0.5-0.9,0.5c-0.9,0-1-0.9-1-1.6c0-0.9,0.4-1.6,1.1-1.6
				c0.4,0,0.6,0.2,0.8,0.5h0v-0.4h0.3V61.9z M52,58.6c0,0-0.3-0.5-0.8-0.5c-0.7,0-0.8,0.9-0.8,1.3c0,0.5,0.2,1.2,0.8,1.2
				c0.4,0,0.6-0.2,0.8-0.5V58.6z"/>
			<path class="st0" d="M55.1,60.9h-0.3v-0.5c-0.3,0.3-0.6,0.6-1,0.6c-0.2,0-0.7-0.1-0.7-0.8v-2.3h0.3v2.2c0,0.3,0.1,0.6,0.5,0.6
				c0.4,0,0.7-0.3,0.9-0.6v-2.2h0.3V60.9z"/>
			<path class="st0" d="M56.2,57.3h-0.3v-0.4h0.3V57.3z M56.2,57.9v3h-0.3v-3H56.2z"/>
			<path class="st0" d="M57.1,59.4c0,0.5,0.1,1.2,0.9,1.2c0.5,0,0.7-0.4,0.8-0.6l0.3,0.1c-0.3,0.6-0.7,0.7-1,0.7c-1,0-1.2-1-1.2-1.6
				c0-0.9,0.5-1.5,1.2-1.5c0.8,0,1.1,0.7,1.1,1.5v0.2H57.1z M58.7,59.2c0-0.7-0.3-1.1-0.8-1.1c-0.4,0-0.8,0.4-0.8,1.1H58.7z"/>
			<path class="st0" d="M59.7,57.9H60v0.6c0.3-0.4,0.5-0.6,1-0.6v0.3c-0.5,0-0.6,0.1-1,0.6v2.1h-0.3V57.9z"/>
			<path class="st0" d="M61.5,59.4c0,0.5,0.1,1.2,0.9,1.2c0.5,0,0.7-0.4,0.8-0.6l0.3,0.1c-0.3,0.6-0.7,0.7-1,0.7c-1,0-1.2-1-1.2-1.6
				c0-0.9,0.5-1.5,1.2-1.5c0.8,0,1.1,0.7,1.1,1.5v0.2H61.5z M63.1,59.2c0-0.7-0.3-1.1-0.8-1.1c-0.4,0-0.8,0.4-0.8,1.1H63.1z"/>
			<path class="st0" d="M65.5,58.6c-0.1-0.4-0.4-0.5-0.6-0.5c-0.4,0-0.6,0.3-0.6,0.5c0,0.3,0.1,0.4,0.4,0.5l0.3,0.1
				c0.5,0.2,0.8,0.4,0.8,0.9c0,0.4-0.3,0.9-1,0.9c-0.6,0-0.9-0.4-1-0.8l0.3-0.1c0.1,0.4,0.4,0.6,0.7,0.6c0.5,0,0.7-0.2,0.7-0.6
				c0-0.3-0.2-0.5-0.5-0.6l-0.4-0.1c-0.4-0.2-0.7-0.3-0.7-0.8c0-0.4,0.3-0.8,0.9-0.8c0.5,0,0.7,0.2,0.9,0.7L65.5,58.6z"/>
			<path class="st0" d="M67.7,56.9H68v4h-0.3V56.9z"/>
			<path class="st0" d="M68.8,56.9h0.3v4h-0.3V56.9z"/>
			<path class="st0" d="M70,59.4c0,0.5,0.1,1.2,0.9,1.2c0.5,0,0.7-0.4,0.8-0.6l0.3,0.1c-0.3,0.6-0.7,0.7-1,0.7c-1,0-1.2-1-1.2-1.6
				c0-0.9,0.5-1.5,1.2-1.5c0.8,0,1.1,0.7,1.1,1.5v0.2H70z M71.7,59.2c0-0.7-0.3-1.1-0.8-1.1c-0.4,0-0.8,0.4-0.8,1.1H71.7z"/>
			<path class="st0" d="M74.8,58.1h-0.5c0.1,0.1,0.3,0.3,0.3,0.7c0,0.4-0.2,0.9-1.1,0.9c-0.1,0-0.2,0-0.2,0c0,0-0.2,0.1-0.2,0.3
				c0,0.2,0,0.2,0.6,0.3l0.2,0c0.4,0.1,0.9,0.2,0.9,0.8c0,0.5-0.5,0.8-1.3,0.8c-0.7,0-1.2-0.2-1.2-0.8c0-0.4,0.3-0.6,0.6-0.8
				c-0.1,0-0.2-0.1-0.2-0.3c0-0.2,0.1-0.3,0.3-0.5c-0.3-0.1-0.5-0.4-0.5-0.8c0-0.5,0.3-1,1-1c0.2,0,0.3,0,0.4,0.1h0.9V58.1z
				 M73.2,60.5c0,0-0.6,0.3-0.6,0.7c0,0.3,0.3,0.5,0.9,0.5c0.5,0,0.9-0.2,0.9-0.6c0-0.3-0.2-0.4-0.7-0.5L73.2,60.5z M74.2,58.8
				c0-0.4-0.3-0.7-0.7-0.7c-0.4,0-0.7,0.3-0.7,0.7c0,0.5,0.4,0.7,0.7,0.7C73.8,59.5,74.2,59.3,74.2,58.8z"/>
			<path class="st0" d="M75.1,58.6c0.1-0.4,0.4-0.7,1-0.7c0.8,0,0.9,0.5,0.9,1v1.3c0,0.3,0,0.7,0,0.7h-0.3l0-0.5
				c-0.2,0.3-0.5,0.5-1,0.5c-0.5,0-0.8-0.4-0.8-0.8c0-0.9,0.8-1,1.6-1h0.2c0-0.5,0-1-0.7-1c-0.5,0-0.6,0.3-0.7,0.6L75.1,58.6z
				 M76.8,59.3h-0.2c-0.7,0-1.3,0.1-1.3,0.8c0,0.4,0.3,0.6,0.6,0.6c0.4,0,0.6-0.2,0.9-0.6V59.3z"/>
			<path class="st0" d="M77.8,57.9h0.3v0.6c0.3-0.4,0.5-0.6,1-0.6v0.3c-0.5,0-0.6,0.1-1,0.6v2.1h-0.3V57.9z"/>
			<path class="st0" d="M80.5,59.8h-0.3v-0.5c0-0.3,0.1-0.4,0.4-0.8c0.2-0.3,0.3-0.5,0.3-0.9c0-0.2,0-0.7-0.5-0.7
				c-0.4,0-0.5,0.2-0.6,0.6l-0.3-0.1c0.1-0.4,0.4-0.8,0.9-0.8c0.4,0,0.8,0.3,0.8,1.1c0,0.4-0.1,0.6-0.4,1c-0.3,0.4-0.3,0.4-0.3,0.7
				V59.8z M80.1,60.4h0.4v0.5h-0.4V60.4z"/>
		</g>
		<g>
			<path class="st0" d="M23.6,60.9c0,0-0.1,0-0.1,0c-1-0.2-1.3-1.3-1.3-2c0-1.1,0.4-2.1,1.5-2.1c1.1,0,1.6,1.1,1.5,2.1
				c-0.1,1.2-0.4,1.6-1.1,2c0,0-0.1,0.2,0.1,0.4c0.2,0.2,0.6,0.2,0.7,0.2l0,0.3c0,0-0.7,0.1-1-0.2C23.6,61.4,23.6,60.9,23.6,60.9
				L23.6,60.9z M23.6,60.6c0.9,0,1.2-1,1.2-1.8c0-0.9-0.3-1.8-1.2-1.8c-0.9,0-1.2,0.9-1.2,1.8C22.5,59.6,22.7,60.6,23.6,60.6
				L23.6,60.6z"/>
		</g>
	</g>
</g>
</svg>
