<?xml version="1.0" encoding="utf-8"?>
<!-- Generator: Adobe Illustrator 21.0.0, SVG Export Plug-In . SVG Version: 6.00 Build 0)  -->
<svg version="1.1" id="Capa_1" xmlns="http://www.w3.org/2000/svg" xmlns:xlink="http://www.w3.org/1999/xlink" x="0px" y="0px"
	 viewBox="0 0 100.4 100.4" style="enable-background:new 0 0 100.4 100.4;" xml:space="preserve">
<style type="text/css">
	.st0{fill:#0E3178;}
	.st1{fill:#67B7E6;}
	.st2{fill:#13131E;}
	.st3{fill:#FFFFFF;}
</style>
<title>digra</title>
<g>
	<g>
		<path class="st0" d="M92.7,43.5H80h-0.7H68.2c-3,0-5.4,2.4-5.4,5.4v2.7V58v1v1.7v1v3.5v2.7v0.1v2.7v1.7c0,1.5-1.2,2.7-2.6,2.7
			c-1.5,0-2.6-1.2-2.6-2.7v-1v-0.7v-2.8v-5.6v-0.7v-0.4v-0.7v-5.6v-2.8v-0.7V46v-1v-9.1c0-3-2.4-5.4-5.4-5.4H40.9h-0.7H29.1
			c-3,0-5.4,2.4-5.4,5.4V45v1v5.6v0.7v2.8v5.6v0.7v0.4v0.7v5.6v2.8v0.7V77v1v9.1c0,3,2.4,5.4,5.4,5.4h7.5h3.7h0.7h11.2h16.1h11.2H80
			h12.7c3,0,5.4-2.4,5.4-5.4v-2.7V78v-1v-1.7v-1v-3.5v-2.7v-0.1v-2.7v-3.5v-1V59v-1v-6.4v-2.7C98.1,45.9,95.7,43.5,92.7,43.5z"/>
		<path class="st1" d="M91.9,61.7c1.3,8.9-4.8,17.3-13.7,18.6L27,87.9c-8.9,1.3-17.3-4.8-18.6-13.8l-6-39.9
			C1.1,25.3,7.3,17,16.2,15.7L67.3,8c8.9-1.3,17.3,4.8,18.6,13.8L91.9,61.7z"/>
		<g>
			<path class="st2" d="M27,87.9l51.1-7.7c8.9-1.3,15.1-9.7,13.7-18.6l-2.7-18.2H80h-0.7H68.2c-3,0-5.4,2.4-5.4,5.4v2.7V58v1v1.7v1
				v3.5v2.7v0.1v2.7v1.7c0,1.5-1.2,2.7-2.6,2.7c-1.5,0-2.6-1.2-2.6-2.7v-1v-0.7v-2.8v-5.6v-0.7v-0.4v-0.7v-5.6v-2.8v-0.7V46v-1v-9.1
				c0-3-2.4-5.4-5.4-5.4H40.9h-0.7H29.1c-3,0-5.4,2.4-5.4,5.4V45v1v5.6v0.7v2.8v5.6v0.7v0.4v0.7v5.6v2.8v0.7V77v1v9.1
				c0,0.3,0,0.6,0.1,0.9C24.8,88.1,25.9,88.1,27,87.9z"/>
		</g>
		<g>
			<g>
				<rect x="31.9" y="41.8" class="st3" width="4.3" height="4.2"/>
				<rect x="40.5" y="41.8" class="st3" width="4.3" height="4.2"/>
			</g>
			<g>
				<rect x="31.9" y="50.2" class="st3" width="4.3" height="4.2"/>
				<rect x="40.5" y="50.2" class="st3" width="4.3" height="4.2"/>
			</g>
		</g>
		<g>
			<g>
				<rect x="70" y="54" class="st3" width="4.3" height="4.2"/>
				<rect x="78.6" y="54" class="st3" width="4.3" height="4.2"/>
			</g>
			<g>
				<rect x="70" y="62.4" class="st3" width="4.3" height="4.2"/>
				<rect x="78.6" y="62.4" class="st3" width="4.3" height="4.2"/>
			</g>
		</g>
	</g>
</g>
</svg>
