<?xml version="1.0" encoding="utf-8"?>
<!-- Generator: Adobe Illustrator 21.0.0, SVG Export Plug-In . SVG Version: 6.00 Build 0)  -->
<svg version="1.1" id="Capa_1" xmlns="http://www.w3.org/2000/svg" xmlns:xlink="http://www.w3.org/1999/xlink" x="0px" y="0px"
	 viewBox="0 0 100.4 100.4" style="enable-background:new 0 0 100.4 100.4;" xml:space="preserve">
<style type="text/css">
	.st0{fill:url(#SVGID_1_);}
</style>
<title>digra</title>
<g>
	<radialGradient id="SVGID_1_" cx="50.1997" cy="50.1997" r="46.84" gradientUnits="userSpaceOnUse">
		<stop  offset="0" style="stop-color:#0089CF"/>
		<stop  offset="0.18" style="stop-color:#0181C7"/>
		<stop  offset="0.46" style="stop-color:#056CB3"/>
		<stop  offset="0.79" style="stop-color:#0A4A91"/>
		<stop  offset="1" style="stop-color:#0E3178"/>
	</radialGradient>
	<path class="st0" d="M79.3,97h-32c-5.7,0-10.3-4.6-10.3-10.3c0-5.7,4.6-10.3,10.3-10.3H53c5,0,9.2,3.6,10.1,8.4h16.2
		c3.1,0,5.6-2.5,5.6-5.6c0-9.8,0-28.5,0-29.1l0-1.9h0C84,30.1,68.8,15.4,50.2,15.4C31,15.4,15.4,31,15.4,50.2V53
		c0,2.6-2.1,4.6-4.6,4.6H8c-2.6,0-4.6-2.1-4.6-4.6v-2.8c0.4-12.4,5.4-24,13.9-32.8c8.8-9,20.5-14,32.9-14c12.4,0,24.1,5,32.9,14
		c8.6,8.8,13.5,20.4,13.9,32.8l0,29.2C97,89.1,89.1,97,79.3,97z M47.4,80.2c-3.6,0-6.6,3-6.6,6.6c0,3.6,3,6.6,6.6,6.6h32
		c7.7,0,14.1-6.3,14.1-14.1V50.2C92.6,26,73.6,7,50.2,7S7.8,26,7,50.3L7,53c0,0.5,0.4,1,1,1h2.8c0.5,0,1-0.4,1-1v-2.8
		C11.8,29,29,11.8,50.2,11.8c21.2,0,38.4,17.2,38.4,38.4l0,1.8c0,5.8,0,23.3,0,27.3c0,5.1-4.2,9.3-9.3,9.3H59.6v-1.8
		c0-3.6-3-6.6-6.6-6.6H47.4z M69.9,68.9h-2.8c-4.1,0-7.4-3.3-7.4-7.4V41.8c0-4.1,3.3-7.4,7.4-7.4h2.8c7.2,0,13.1,5.9,13.1,13.1v8.4
		C83,63,77.1,68.9,69.9,68.9z M67.1,38c-2.1,0-3.8,1.7-3.8,3.8v19.7c0,2.1,1.7,3.8,3.8,3.8h2.8c5.2,0,9.4-4.2,9.4-9.4v-8.4
		c0-5.2-4.2-9.4-9.4-9.4H67.1z M33.3,68.9h-2.8c-7.2,0-13.1-5.9-13.1-13.1v-8.4c0-7.2,5.9-13.1,13.1-13.1h2.8c4.1,0,7.5,3.3,7.5,7.4
		v19.7C40.8,65.6,37.4,68.9,33.3,68.9z M30.5,38c-5.2,0-9.4,4.2-9.4,9.4v8.4c0,5.2,4.2,9.4,9.4,9.4h2.8c2.1,0,3.8-1.7,3.8-3.8V41.8
		c0-2.1-1.7-3.8-3.8-3.8H30.5z"/>
</g>
</svg>
