<svg id="Capa_1" data-name="Capa 1" xmlns="http://www.w3.org/2000/svg" xmlns:xlink="http://www.w3.org/1999/xlink" viewBox="0 0 95.93 94.33"><defs><style>.cls-1{fill-rule:evenodd;fill:url(#GradientFill_1);}</style><radialGradient id="GradientFill_1" cx="45.45" cy="44.1" r="129.19" gradientTransform="translate(20.81 89.55) rotate(-90) scale(1 0.56)" gradientUnits="userSpaceOnUse"><stop offset="0" stop-color="#0089cf"/><stop offset="0.46" stop-color="#0087cd"/><stop offset="0.63" stop-color="#0180c6"/><stop offset="0.75" stop-color="#0375bb"/><stop offset="0.84" stop-color="#0664aa"/><stop offset="0.92" stop-color="#094e95"/><stop offset="0.99" stop-color="#0e337a"/><stop offset="1" stop-color="#0e3178"/></radialGradient></defs><title>cortplot</title><path class="cls-1" d="M48.69,72.91l3.1,0,0-2.36-8.31.07,0,2.37,5.2,0ZM14,2.78A1.24,1.24,0,0,1,13.12.67h0A1.24,1.24,0,0,1,14,.3H94.42a1.24,1.24,0,0,1,.88.36l.05.06a1.24,1.24,0,0,1,.31.82v5.3a1.24,1.24,0,0,1-.36.88h0a1.24,1.24,0,0,1-.87.36h-3.2v4.07A1.25,1.25,0,0,1,90,13.39H68.4v9a1.25,1.25,0,0,1-1.24,1.24H59.24V39.75A1.25,1.25,0,0,1,58,41H52.8l0,4a1.27,1.27,0,0,1-1.25,1.28h0A1.27,1.27,0,0,1,50.3,45l0-4.28a2.59,2.59,0,0,0-2.61-2.56h-.39a2.58,2.58,0,0,0-2.56,2.61l.15,18.73a1.26,1.26,0,0,1-.74,1.16l-.05,0a1.27,1.27,0,0,1-1.74-1.16L42.17,41H37.41a1.24,1.24,0,0,1-.88-.36l-.05-.06a1.24,1.24,0,0,1-.31-.82V23.61H28.22a1.24,1.24,0,0,1-.88-.36l-.05-.06a1.24,1.24,0,0,1-.31-.82v-9H5.13A1.24,1.24,0,0,1,4.25,13L4.2,13a1.23,1.23,0,0,1-.31-.82V8.08H1.4a1.24,1.24,0,0,1-.88-.36,1.23,1.23,0,0,1-.37-.88V1.24A1.24,1.24,0,0,1,.52.36L.58.31A1.24,1.24,0,0,1,1.4,0H7.6a1.24,1.24,0,0,1,.88.36h0A1.24,1.24,0,0,1,7.6,2.48h-5V5.6H74.49a1.24,1.24,0,0,1,.88.36h0a1.24,1.24,0,0,1,0,1.75l-.06.05a1.24,1.24,0,0,1-.82.31H6.37v2.82H88.74V8.08H80a1.24,1.24,0,0,1-.88-.36h0a1.23,1.23,0,0,1,0-1.75h0A1.24,1.24,0,0,1,80,5.6h13.2V2.78ZM4.15,85.72H42.53a1.66,1.66,0,0,1-.06-.42l-.08-9.81A1.65,1.65,0,0,1,41,73.95v-.09h0l0-4.14a1.63,1.63,0,0,1,.47-1.17,1.66,1.66,0,0,1,.53-.36,1.64,1.64,0,0,1,.48-.12l0-4.48a1.27,1.27,0,1,1,2.54,0l0,4.47,5.56,0-.16-18.9a1.27,1.27,0,1,1,2.53,0L53,68l.24.08a1.65,1.65,0,0,1,1,1.52l0,4.14a1.65,1.65,0,0,1-.13.66,1.65,1.65,0,0,1-.9.88,1.6,1.6,0,0,1-.3.09v3.08a1.6,1.6,0,0,1-.13.65,1.66,1.66,0,0,1-.38.55l-6.42,6.05H91.78a4.12,4.12,0,0,1,1.58.32,4.16,4.16,0,0,1,2.25,2.25,4.12,4.12,0,0,1,.32,1.58v.32a4.12,4.12,0,0,1-.32,1.58A4.16,4.16,0,0,1,93.37,94a4.12,4.12,0,0,1-1.58.32H4.15A4.12,4.12,0,0,1,2.56,94,4.16,4.16,0,0,1,.32,91.77,4.12,4.12,0,0,1,0,90.19v-.32a4.12,4.12,0,0,1,.32-1.58A4.16,4.16,0,0,1,2.56,86a4.12,4.12,0,0,1,1.58-.32ZM91.78,88.2H4.15a1.64,1.64,0,0,0-.63.13,1.71,1.71,0,0,0-.91.9,1.65,1.65,0,0,0-.12.63v.32a1.64,1.64,0,0,0,.12.63,1.68,1.68,0,0,0,.36.54l0,0a1.7,1.7,0,0,0,.51.33,1.64,1.64,0,0,0,.63.13H91.78a1.64,1.64,0,0,0,.63-.12,1.71,1.71,0,0,0,.91-.9,1.64,1.64,0,0,0,.13-.63v-.32a1.64,1.64,0,0,0-.13-.63,1.71,1.71,0,0,0-.9-.9,1.64,1.64,0,0,0-.63-.13ZM52.3,38.51h4.46V23.61H38.65v14.9h4a5.11,5.11,0,0,1,4.58-2.91h.39a5.13,5.13,0,0,1,4.66,2.91ZM29.46,21.13H65.92v-7.7H29.46v7.7ZM51.59,76.3l-.29.27a.7.7,0,0,1,.29.12v-.4ZM45,80.6l5.48-5.17-5.53,0,0,5.12Zm-.82,2.32a.71.71,0,0,1-.28-.12v.38Z"/></svg>