<?xml version="1.0" encoding="utf-8"?>
<!-- Generator: Adobe Illustrator 21.0.0, SVG Export Plug-In . SVG Version: 6.00 Build 0)  -->
<svg version="1.1" id="Capa_1" xmlns="http://www.w3.org/2000/svg" xmlns:xlink="http://www.w3.org/1999/xlink" x="0px" y="0px"
	 viewBox="0 0 95.9 94.3" style="enable-background:new 0 0 95.9 94.3;" xml:space="preserve">
<style type="text/css">
	.st0{fill-rule:evenodd;clip-rule:evenodd;fill:#FFFFFF;}
	.st1{fill-rule:evenodd;clip-rule:evenodd;fill:#D1D1D1;}
</style>
<title>cortplot</title>
<g>
	<g>
		<path class="st0" d="M19.9,39.6c1.2,1.4,0.2,4.1-0.5,5.8c-1,2.5-2.3,4.7-3.9,6.7c-0.9,1.1-1.9,2.6-3.4,2.6
			C10.8,56.2,8.8,57.8,6,58c-0.5,0-1.5,0.1-2.1-0.1C3,57.6,2,55.8,1.6,55c-0.6-1.2-1.1-2.5-1.2-4.1c1.4,1.2,4.4,3.2,6.8,1.9
			c0.4-0.2,0.7-0.4,0.7-0.9c1.1,0.7,2.1,1.8,3.5,2c1.5,0.2,2.5-1.2,3.3-2.3c1.4-1.9,2.4-3.8,3.4-6c0.5-1.1,1.1-2.3,1.2-3.5
			c0.1-0.7,0-1.3-0.3-1.6c-1-1.2-4.5-1.3-6-0.5c-1,0.6-1.6,2.2-2.2,3.4c-0.3,0.7-0.6,1.3-0.9,1.9c-0.3,0.6-0.5,1.3-1.1,1.7
			c0.2-1.4,0.9-2.8,1.5-4.2c0.5-1.2,1.1-2.9,2.1-3.5c1.6-1.1,4.9-0.9,6.7-0.1c0.2-0.4,0.6-0.9,0.6-1.4c0-0.3-0.3-0.5-0.3-0.9
			c0.1-0.9,1.4-0.9,1.5,0c0,0.5-0.3,0.6-0.6,0.9C20.3,38.4,20.1,39.1,19.9,39.6z M5.3,54.1c0.1,0.1,0.1,0.2,0.1,0.3
			c-0.2,0.2-0.5,0.3-0.5,0.6c-0.1,1.1,1.5,0.1,2.1,0.6c0,0.7-0.7,0.7-1.2,0.8c0,0.1,0,0.2,0,0.3c0.4,0,0.6-0.2,1-0.2
			c0.2,0,0.1,0.3,0.3,0.3c0-0.1,0.1-0.1,0.2-0.1c0.1-0.2-0.2-0.3-0.2-0.4c0-0.3,0.5-0.3,0.4-0.9c-0.2-0.9-1.3-0.1-2.1-0.5
			c0-0.8,1-0.4,1.1-1c-0.2-0.1-0.4,0.1-0.7,0.1c-0.1-0.1,0-0.3-0.2-0.3C5.6,54,5.3,54,5.3,54.1z"/>
		<path class="st0" d="M13.8,41.2c-0.2,0.6-0.5,0.9-0.8,1.5c-0.2,0.4-0.7,1.1-0.6,1.6c0.2,1.1,2.6,0.3,3.5,0.8c0,0.8-1.3,0.5-2,0.5
			c-0.9-0.1-2-0.3-2.1-1c-0.3-1.2,1-2.8,1.5-3.5C13.6,41,13.6,41.1,13.8,41.2z"/>
		<path class="st1" d="M75.7,46.1c1.5-0.2,2.9,2.2,3.5,3.3c0.4,0.6,0.7,1.2,1,2c0.3,0.7,0.7,1.9-0.2,1.9c-0.6,0-1.6-2.7-1.8-3.2
			c-0.4-0.7-1.3-2.7-2.3-2.7c-1,0-2,1.9-2.4,2.7c-0.3,0.5-0.5,1-0.8,1.7c-0.2,0.5-0.5,1.5-0.9,1.6c-0.9,0.1-0.7-1-0.4-1.6
			c0.8-1.8,1.7-3.7,3-4.9C74.7,46.6,75.1,46.2,75.7,46.1z"/>
		<path class="st1" d="M90.6,46.1c0.5-0.1,1.1,0.2,1.5,0.6c1.3,1.1,2.3,3.1,3.1,4.9c0.3,0.7,0.6,1.7-0.1,1.8c-0.6,0.1-1.5-2.3-2-3.2
			c-0.5-0.9-1.3-2.8-2.3-2.8c-1,0-1.8,1.8-2.3,2.7c-0.2,0.4-0.5,0.9-0.9,1.6c-0.3,0.6-0.5,1.5-0.9,1.6c-1.1,0.1-0.5-1.2-0.2-1.9
			c0.4-0.8,0.7-1.4,1-2C88.1,48.4,89.2,46.3,90.6,46.1z"/>
		<path class="st1" d="M55.9,46.2c1.9-0.2,4,0,5.3,1c0.8,0.6,1.1,1.7,0.1,2.4c-0.5,0.3-1.3,0.5-2.1,0.6c-0.6,0.1-2.2,0.2-2.3-0.3
			c0-0.4,0.4-0.4,1.3-0.4c1-0.1,2.5-0.2,2.5-1.1c0-1.1-3-1.4-4.6-1.3c-0.6,0-2.6,0.7-2.6,0C53.4,46.3,55.3,46.3,55.9,46.2z"/>
		<path class="st1" d="M64.4,46.3c0.6,1.9-0.5,4.1,0.7,5.3c0.6,0.6,1.6,0.9,2.9,0.9c0.6,0,1.9-0.5,2,0.3c0.1,0.7-1.7,0.8-2.8,0.7
			c-2-0.1-3.6-1.1-3.8-3.2c-0.1-0.6,0-1.4,0-2.1c0-0.5-0.1-1.7,0.3-1.9C63.7,46,64.2,46.1,64.4,46.3z"/>
		<path class="st1" d="M84.1,47.1c0,1.1,0,2.2,0,3.5c0,0.9,0.4,2.9-0.7,2.8c-0.8-0.1-0.5-2-0.5-2.9c0-1.3,0-2.3,0-3.3
			c-0.8-0.2-2.4,0.3-2.7-0.4c-0.1-0.3,0.2-0.5,0.5-0.6c0.7-0.2,2,0,3.3,0c1.1,0,2.8-0.2,2.8,0.4C87,47.4,85,47,84.1,47.1z"/>
		<path class="st0" d="M25.5,52.4c2.4,0.5,5.4-0.2,5.1-2.6c-0.2-2.1-3.4-2.8-6-2.3c-0.5,0.1-1.2,0.4-1.4,0c-0.4-0.8,1.2-1.1,2.1-1.1
			c2.4-0.2,5,0.4,6.1,2.1c0.6,0.9,0.6,2.2,0.1,3.2c-0.6,1.1-2.2,1.9-3.8,2c-0.6,0-2.6,0.1-3-0.4c-0.3-0.4-0.2-1.6-0.2-2.5
			c0-0.9-0.2-2.2,0.5-2.2C26,48.3,25.3,51.4,25.5,52.4z"/>
		<path class="st0" d="M36.8,46.3c1.5-0.2,2.8,2,3.4,3.1c0.3,0.6,0.7,1.1,1.1,2.1c0.3,0.7,0.9,2-0.1,2.1c-0.6,0-0.7-0.8-1-1.5
			c-0.3-0.6-0.7-1.3-0.9-1.6c-0.4-0.8-1.3-2.7-2.3-2.8c-1.1-0.1-2,2-2.4,2.7c-0.3,0.5-0.6,1-0.9,1.6c-0.2,0.5-0.5,1.5-0.9,1.6
			c-1,0.1-0.6-1.2-0.3-2c0.4-0.8,0.7-1.4,1.1-2C34.3,48.5,35.4,46.6,36.8,46.3z"/>
		<path class="st0" d="M41.6,46.3c0.6-0.2,0.8,0.8,1.1,1.5c0.3,0.7,0.6,1.2,0.8,1.6c0.6,1.2,1.3,2.8,2.1,2.8c0.9,0,1.8-2.1,2.1-2.8
			c0.2-0.4,0.6-1,0.8-1.6c0.3-0.6,0.4-1.5,0.8-1.6c1-0.2,0.5,1.3,0.3,1.7c-0.7,1.7-1.8,4.1-3,5.2c-1.7,1.4-3.3-1.2-3.9-2.4
			c-0.4-0.8-0.9-1.8-1.3-2.8C41.3,47.4,40.9,46.5,41.6,46.3z"/>
		<path class="st0" d="M52.5,46.5c0.2,1,0.1,2.4,0.1,3.8c0,0.9,0.4,3.4-0.7,3.2c-0.8-0.1-0.5-2-0.5-3.1c0-1.6-0.1-3,0.2-4
			C51.7,46.2,52.4,46.3,52.5,46.5z"/>
		<path class="st1" d="M56.2,48.5c0.1,1.4,0.1,3.3,0,4.7c-0.2,0.3-0.8,0.3-1,0c-0.1-1.4-0.2-3.4,0.1-4.7
			C55.5,48.3,56.1,48.3,56.2,48.5z"/>
	</g>
</g>
</svg>
