<svg id="Capa_1" data-name="Capa 1" xmlns="http://www.w3.org/2000/svg" xmlns:xlink="http://www.w3.org/1999/xlink" viewBox="0 0 100.45 100.45"><defs><style>.cls-1,.cls-2{fill-rule:evenodd;}.cls-1{fill:url(#radial-gradient);}.cls-2{fill:url(#radial-gradient-2);}</style><radialGradient id="radial-gradient" cx="47.59" cy="27.61" r="80.87" gradientTransform="translate(21.79 75.2) rotate(-90) scale(1 0.93)" gradientUnits="userSpaceOnUse"><stop offset="0" stop-color="#0089cf"/><stop offset="0.18" stop-color="#0181c7"/><stop offset="0.46" stop-color="#056cb3"/><stop offset="0.79" stop-color="#0a4a91"/><stop offset="1" stop-color="#0e3178"/></radialGradient><radialGradient id="radial-gradient-2" cx="48.83" cy="59.6" r="105.04" gradientTransform="translate(26.22 108.43) rotate(-90) scale(1 0.38)" xlink:href="#radial-gradient"/></defs><title>digra</title><path class="cls-1" d="M94.56,11.77H88.67V5.89h5.89v5.89Zm-44.34,0a2.94,2.94,0,1,1,2.94-2.94,2.95,2.95,0,0,1-2.94,2.94ZM85.54,53.17a2.94,2.94,0,1,1,2.94-2.94,2.95,2.95,0,0,1-2.94,2.94Zm-70.63,0a2.94,2.94,0,1,1,2.94-2.94,2.95,2.95,0,0,1-2.94,2.94ZM11.77,11.77H5.89V5.89h5.89v5.89ZM97.5,0H85.73a2.94,2.94,0,0,0-2.94,2.94V5.89H58.54a8.83,8.83,0,0,0-16.64,0H17.66V2.94A2.94,2.94,0,0,0,14.71,0H2.94A2.94,2.94,0,0,0,0,2.94V14.71a2.94,2.94,0,0,0,2.94,2.94H14.71a2.94,2.94,0,0,0,2.94-2.94v-3H29.89A38.66,38.66,0,0,0,12,41.87a8.82,8.82,0,1,0,5.9.06A32.86,32.86,0,0,1,42.32,12.75a8.82,8.82,0,0,0,15.81,0A32.86,32.86,0,0,1,82.5,41.93a8.83,8.83,0,1,0,5.9-.06,38.59,38.59,0,0,0-17.85-30.1H82.79v2.94a2.94,2.94,0,0,0,2.94,2.94H97.5a2.94,2.94,0,0,0,2.94-2.94V2.94A2.94,2.94,0,0,0,97.5,0Z"/><path class="cls-2" d="M59.69,83a14.46,14.46,0,0,0-3.58-.45H44.34a14.45,14.45,0,0,0-3.58.45A43.18,43.18,0,0,0,30.43,61.68L47.28,36.4V53.67a8.83,8.83,0,1,0,5.89,0V36.4L70,61.68A43.17,43.17,0,0,0,59.69,83ZM36,94.56a9,9,0,0,1,8.33-6.08H56.11a9,9,0,0,1,8.33,6.08ZM50.22,59.05A2.94,2.94,0,1,0,53.17,62a2.95,2.95,0,0,0-2.94-2.94Zm2.45-34h0l0,0-.13-.17A2.94,2.94,0,0,0,47.8,25l0,0h0L24.23,60.36a2.94,2.94,0,0,0,.37,3.71A37.28,37.28,0,0,1,35.23,85.83,15.14,15.14,0,0,0,33.91,87,14.91,14.91,0,0,0,29.62,97.5a2.94,2.94,0,0,0,2.94,2.94H67.88a2.94,2.94,0,0,0,2.94-2.94A14.92,14.92,0,0,0,66.54,87a15.2,15.2,0,0,0-1.32-1.19A37.28,37.28,0,0,1,75.84,64.07a2.94,2.94,0,0,0,.37-3.71Z"/></svg>