<?xml version="1.0" encoding="utf-8"?>
<!-- Generator: Adobe Illustrator 21.0.0, SVG Export Plug-In . SVG Version: 6.00 Build 0)  -->
<svg version="1.1" id="Capa_1" xmlns="http://www.w3.org/2000/svg" xmlns:xlink="http://www.w3.org/1999/xlink" x="0px" y="0px"
	 viewBox="0 0 100.4 100.4" style="enable-background:new 0 0 100.4 100.4;" xml:space="preserve">
<style type="text/css">
	.st0{fill:url(#SVGID_1_);}
</style>
<title>digra</title>
<radialGradient id="SVGID_1_" cx="50.225" cy="52.6139" r="44.393" gradientUnits="userSpaceOnUse">
	<stop  offset="0" style="stop-color:#0089CF"/>
	<stop  offset="0.18" style="stop-color:#0181C7"/>
	<stop  offset="0.46" style="stop-color:#056CB3"/>
	<stop  offset="0.79" style="stop-color:#0A4A91"/>
	<stop  offset="1" style="stop-color:#0E3178"/>
</radialGradient>
<path class="st0" d="M91,18.9c3,0,5.4,2.4,5.4,5.4v3.7c0,0.2-0.1,0.4-0.3,0.6l-1,0.8C90,33.5,86.8,36,62.3,53.8
	c-0.6,0.4-1.3,1-2,1.6c-2.4,1.9-7.5,5.8-9.9,5.8c0,0,0,0-0.1,0c0,0-0.1,0-0.1,0c-2.4,0-7.5-3.9-9.9-5.8c-0.7-0.6-1.4-1.1-2.1-1.6
	C14.1,36.3,10.7,33.7,5.5,29.6l-1.2-1C4.1,28.5,4,28.3,4,28.1v-3.7c0-3,2.4-5.4,5.4-5.4H91 M96.4,46.5v34.4c0,3-2.4,5.4-5.4,5.4H9.4
	c-3,0-5.4-2.4-5.4-5.4V46.5c4.4,3.3,11.5,8.5,25.8,18.9c0.6,0.4,1.3,1,2,1.5c4.4,3.4,11.1,8.6,18.4,8.6l0.1,0l0.1,0
	c7.3,0,14-5.2,18.4-8.6c0.7-0.5,1.4-1.1,1.9-1.5C84.7,55.2,91.8,50,96.4,46.5 M91,14.9H9.4c-5.2,0-9.4,4.2-9.4,9.4v3.7
	c0,1.5,0.7,2.8,1.8,3.7c6,4.7,8,6.4,34,25.2c3.3,2.4,9.8,8.1,14.3,8.1c0,0,0.1,0,0.1,0c0,0,0.1,0,0.1,0c4.5,0,11-5.7,14.3-8.1
	c26-18.9,28-20.5,34-25.2c1.1-0.9,1.8-2.3,1.8-3.7v-3.7C100.4,19.2,96.2,14.9,91,14.9L91,14.9z M99.3,39.6c-0.2,0-0.5,0.1-0.7,0.3
	c-4.4,3.4-10.2,7.8-30.2,22.3c-4,2.9-11,9.3-18,9.3c0,0-0.1,0-0.1,0c0,0,0,0-0.1,0c-6.9,0-13.9-6.3-18-9.3
	C12.1,47.6,6.3,43.3,1.9,39.8c-0.2-0.2-0.5-0.3-0.7-0.3c-0.6,0-1.2,0.5-1.2,1.2v40.1c0,5.2,4.2,9.4,9.4,9.4H91
	c5.2,0,9.4-4.2,9.4-9.4V40.7C100.4,40.1,99.9,39.6,99.3,39.6L99.3,39.6z"/>
</svg>
