<svg id="Capa_1" data-name="Capa 1" xmlns="http://www.w3.org/2000/svg" xmlns:xlink="http://www.w3.org/1999/xlink" viewBox="0 0 96.76 96"><defs><style>.cls-1,.cls-11,.cls-12,.cls-13,.cls-2{fill-rule:evenodd;}.cls-1{fill:url(#GradientFill_1);}.cls-2{fill:url(#GradientFill_1-2);}.cls-3{fill:url(#GradientFill_1-3);}.cls-4{fill:url(#GradientFill_1-4);}.cls-5{fill:url(#GradientFill_1-5);}.cls-6{fill:url(#GradientFill_1-6);}.cls-7{fill:url(#GradientFill_1-7);}.cls-8{fill:url(#GradientFill_1-8);}.cls-9{fill:url(#GradientFill_1-9);}.cls-10{fill:url(#GradientFill_1-10);}.cls-11{fill:url(#GradientFill_1-11);}.cls-12{fill:url(#GradientFill_1-12);}.cls-13{fill:url(#GradientFill_1-13);}</style><radialGradient id="GradientFill_1" cx="45.84" cy="44.88" r="131.47" gradientTransform="translate(20.99 90.72) rotate(-90) scale(1 0.55)" gradientUnits="userSpaceOnUse"><stop offset="0" stop-color="#0089cf"/><stop offset="0.46" stop-color="#0087cd"/><stop offset="0.63" stop-color="#0180c6"/><stop offset="0.75" stop-color="#0375bb"/><stop offset="0.84" stop-color="#0664aa"/><stop offset="0.92" stop-color="#094e95"/><stop offset="0.99" stop-color="#0e337a"/><stop offset="1" stop-color="#0e3178"/></radialGradient><radialGradient id="GradientFill_1-2" cx="43.54" cy="28.49" r="13.15" gradientTransform="translate(17.44 72.03) rotate(-90) scale(1 0.92)" xlink:href="#GradientFill_1"/><radialGradient id="GradientFill_1-3" cx="56.67" cy="25.5" r="4.38" gradientTransform="translate(42.66 82.17) rotate(-90) scale(1 0.55)" xlink:href="#GradientFill_1"/><radialGradient id="GradientFill_1-4" cx="56.67" cy="30.3" r="4.38" gradientTransform="translate(40.03 86.97) rotate(-90) scale(1 0.55)" xlink:href="#GradientFill_1"/><radialGradient id="GradientFill_1-5" cx="61.47" cy="25.5" r="4.38" gradientTransform="translate(47.46 86.97) rotate(-90) scale(1 0.55)" xlink:href="#GradientFill_1"/><radialGradient id="GradientFill_1-6" cx="61.47" cy="30.3" r="4.38" gradientTransform="translate(44.83 91.77) rotate(-90) scale(1 0.55)" xlink:href="#GradientFill_1"/><radialGradient id="GradientFill_1-7" cx="66.27" cy="25.5" r="4.38" gradientTransform="translate(52.26 91.77) rotate(-90) scale(1 0.55)" xlink:href="#GradientFill_1"/><radialGradient id="GradientFill_1-8" cx="66.27" cy="30.3" r="4.38" gradientTransform="translate(49.62 96.57) rotate(-90) scale(1 0.55)" xlink:href="#GradientFill_1"/><radialGradient id="GradientFill_1-9" cx="71.07" cy="25.5" r="4.38" gradientTransform="translate(57.06 96.57) rotate(-90) scale(1 0.55)" xlink:href="#GradientFill_1"/><radialGradient id="GradientFill_1-10" cx="71.07" cy="30.3" r="4.38" gradientTransform="translate(54.43 101.37) rotate(-90) scale(1 0.55)" xlink:href="#GradientFill_1"/><radialGradient id="GradientFill_1-11" cx="54.74" cy="41.5" r="12.04" gradientTransform="translate(0 26.39) scale(1 0.36)" xlink:href="#GradientFill_1"/><radialGradient id="GradientFill_1-12" cx="54.74" cy="60.7" r="12.04" gradientTransform="translate(0 38.6) scale(1 0.36)" xlink:href="#GradientFill_1"/><radialGradient id="GradientFill_1-13" cx="54.74" cy="79.9" r="12.04" gradientTransform="translate(0 50.81) scale(1 0.36)" xlink:href="#GradientFill_1"/></defs><title>impdig</title><path class="cls-1" d="M93.56,92.8H80.76v-64h12.8v64Zm-60.8-16h44.8v16H32.76v-16Zm-16-67.2h12.8V92.8H16.76V9.6Zm60.8,0v3.2H32.76V9.6ZM39.16,3.2H52V6.4H39.16V3.2Zm-6.4,54.4h44.8v16H32.76v-16Zm44.8-38.4H32.76V16h44.8v3.2Zm0,16H32.76V22.4h44.8V35.2Zm-44.8,3.2h44.8v16H32.76v-16Zm62.4-12.8H80.76V19.2h14.4a1.6,1.6,0,0,0,0-3.2H80.76V8a1.6,1.6,0,0,0-1.6-1.6h-24V0H36V6.4H15.16A1.6,1.6,0,0,0,13.56,8V32.94L2.71,22.09A1.6,1.6,0,0,0,.45,24.36L13.56,37.46V52.14L2.71,41.29A1.6,1.6,0,0,0,.45,43.56L13.56,56.66V94.4a1.6,1.6,0,0,0,1.6,1.6h80a1.6,1.6,0,0,0,1.6-1.6V27.2A1.6,1.6,0,0,0,95.16,25.6Z"/><path class="cls-2" d="M48.76,30.4h-9.6V27.2h9.6v3.2ZM52,24H36v9.6H52Z"/><rect class="cls-3" x="55.16" y="24" width="3.2" height="3.2"/><rect class="cls-4" x="55.16" y="28.8" width="3.2" height="3.2"/><rect class="cls-5" x="59.96" y="24" width="3.2" height="3.2"/><rect class="cls-6" x="59.96" y="28.8" width="3.2" height="3.2"/><rect class="cls-7" x="64.76" y="24" width="3.2" height="3.2"/><rect class="cls-8" x="64.76" y="28.8" width="3.2" height="3.2"/><rect class="cls-9" x="69.56" y="24" width="3.2" height="3.2"/><rect class="cls-10" x="69.56" y="28.8" width="3.2" height="3.2"/><path class="cls-11" d="M61.56,40H48.76a1.6,1.6,0,0,0,0,3.2h12.8a1.6,1.6,0,0,0,0-3.2Z"/><path class="cls-12" d="M61.56,59.2H48.76a1.6,1.6,0,0,0,0,3.2h12.8a1.6,1.6,0,0,0,0-3.2Z"/><path class="cls-13" d="M61.56,78.4H48.76a1.6,1.6,0,0,0,0,3.2h12.8a1.6,1.6,0,0,0,0-3.2Z"/></svg>