<svg id="Capa_1" data-name="Capa 1" xmlns="http://www.w3.org/2000/svg" xmlns:xlink="http://www.w3.org/1999/xlink" viewBox="0 0 96.02 96.02"><defs><style>.cls-1{fill:url(#GradientFill_1);}.cls-2,.cls-3,.cls-6{fill-rule:evenodd;}.cls-2{fill:url(#GradientFill_1-2);}.cls-3{fill:url(#GradientFill_1-3);}.cls-4{fill:url(#GradientFill_1-4);}.cls-5{fill:url(#GradientFill_1-5);}.cls-6{fill:url(#GradientFill_1-6);}</style><radialGradient id="GradientFill_1" cx="58.07" cy="86.52" r="5.14" gradientTransform="translate(10.53 144.58) rotate(-90) scale(1 0.55)" gradientUnits="userSpaceOnUse"><stop offset="0" stop-color="#0089cf"/><stop offset="0.46" stop-color="#0087cd"/><stop offset="0.63" stop-color="#0180c6"/><stop offset="0.75" stop-color="#0375bb"/><stop offset="0.84" stop-color="#0664aa"/><stop offset="0.92" stop-color="#094e95"/><stop offset="0.99" stop-color="#0e337a"/><stop offset="1" stop-color="#0e3178"/></radialGradient><radialGradient id="GradientFill_1-2" cx="32.11" cy="16.53" r="15.81" gradientTransform="translate(0 11.16) scale(1 0.33)" xlink:href="#GradientFill_1"/><radialGradient id="GradientFill_1-3" cx="45.49" cy="44.89" r="131.49" gradientTransform="translate(20.83 90.38) rotate(-90) scale(1 0.55)" xlink:href="#GradientFill_1"/><radialGradient id="GradientFill_1-4" cx="71.27" cy="16.76" r="5.14" gradientTransform="translate(62.06 88.02) rotate(-90) scale(1 0.55)" xlink:href="#GradientFill_1"/><radialGradient id="GradientFill_1-5" cx="63.76" cy="16.76" r="5.14" gradientTransform="translate(54.56 80.52) rotate(-90) scale(1 0.55)" xlink:href="#GradientFill_1"/><radialGradient id="GradientFill_1-6" cx="82.32" cy="16.76" r="8.47" gradientTransform="translate(0 6.59) scale(1 0.61)" xlink:href="#GradientFill_1"/></defs><title>impgran</title><circle class="cls-1" cx="58.17" cy="86.64" r="1.88"/><path class="cls-2" d="M41.29,14.77H24a1.88,1.88,0,0,0,0,3.75H41.29a1.88,1.88,0,1,0,0-3.75Z"/><path class="cls-3" d="M63.86,22.5A5.19,5.19,0,0,1,59,19.94a6.31,6.31,0,0,1,0-6.13,5.19,5.19,0,0,1,4.83-2.56H86.6a5.06,5.06,0,0,1,3.69,1.54,5.77,5.77,0,0,1,1.63,4.06s0,0,0,.07A5.76,5.76,0,0,1,90.29,21a5.06,5.06,0,0,1-3.69,1.54Zm20.56,51H80.67V26.26h3.75V73.51ZM24,92.27H78.8a9.33,9.33,0,0,1-1.88-5.63V26.26H63.86a9,9,0,0,1-8.08-4.44,10,10,0,0,1,0-9.88c.14-.24.29-.47.45-.69H16.53a9.33,9.33,0,0,1,1.88,5.63V84.76H50.66a1.88,1.88,0,0,1,0,3.75H18.73A5.63,5.63,0,0,0,24,92.27ZM10.91,73.51V18.75h3.75V73.51ZM3.75,3.75V15H14.34A5.63,5.63,0,0,0,9,11.25,1.88,1.88,0,1,1,9,7.5H86.6a8.85,8.85,0,0,1,5.32,1.75V3.75ZM94.14,73.51h-6V26.12A8.83,8.83,0,0,0,93,23.59a9.46,9.46,0,0,0,2.71-6.7v-15A1.88,1.88,0,0,0,93.8,0H1.88A1.88,1.88,0,0,0,0,1.88v15a1.88,1.88,0,0,0,1.88,1.88H7.16V73.51H1.88a1.88,1.88,0,1,0,0,3.75H14.66v9.38A9.39,9.39,0,0,0,24,96H86.3a1.88,1.88,0,1,0,0-3.75,5.63,5.63,0,0,1-5.63-5.63V77.26H94.14a1.88,1.88,0,1,0,0-3.75Z"/><circle class="cls-4" cx="71.36" cy="16.88" r="1.88"/><circle class="cls-5" cx="63.86" cy="16.88" r="1.88"/><path class="cls-6" d="M78.87,18.75h7.5a1.88,1.88,0,1,0,0-3.75h-7.5a1.88,1.88,0,1,0,0,3.75Z"/></svg>