<svg id="Capa_1" data-name="Capa 1" xmlns="http://www.w3.org/2000/svg" xmlns:xlink="http://www.w3.org/1999/xlink" viewBox="0 0 157.28 102.88"><defs><style>.cls-1{fill:#00aeef;}.cls-1,.cls-2,.cls-3,.cls-4,.cls-5,.cls-6{fill-rule:evenodd;}.cls-2{fill:#ec008c;}.cls-3{fill:#fff200;}.cls-4{fill:#414042;}.cls-5{fill:#030006;}.cls-6{fill:#0b050c;}.cls-7{fill:url(#GradientFill_1);}.cls-8{fill:url(#GradientFill_1-2);}.cls-9{fill:url(#GradientFill_1-3);}.cls-10{fill:url(#GradientFill_1-4);}.cls-11{fill:url(#GradientFill_1-5);}.cls-12{fill:url(#GradientFill_1-6);}.cls-13{fill:url(#GradientFill_1-7);}</style><radialGradient id="GradientFill_1" cx="77.11" cy="48.13" r="9.92" gradientUnits="userSpaceOnUse"><stop offset="0" stop-color="#0089cf"/><stop offset="0.46" stop-color="#0087cd"/><stop offset="0.63" stop-color="#0180c6"/><stop offset="0.75" stop-color="#0375bb"/><stop offset="0.84" stop-color="#0664aa"/><stop offset="0.92" stop-color="#094e95"/><stop offset="0.99" stop-color="#0e337a"/><stop offset="1" stop-color="#0e3178"/></radialGradient><radialGradient id="GradientFill_1-2" cx="95.33" cy="14.17" r="14.17" xlink:href="#GradientFill_1"/><radialGradient id="GradientFill_1-3" cx="49.22" cy="66.97" r="33.35" xlink:href="#GradientFill_1"/><radialGradient id="GradientFill_1-4" cx="42.74" cy="14.17" r="31.84" xlink:href="#GradientFill_1"/><radialGradient id="GradientFill_1-5" cx="95.33" cy="45.23" r="14.17" xlink:href="#GradientFill_1"/><radialGradient id="GradientFill_1-6" cx="12.52" cy="45.23" r="13.37" xlink:href="#GradientFill_1"/><radialGradient id="GradientFill_1-7" cx="79.8" cy="73.18" r="11.07" xlink:href="#GradientFill_1"/></defs><title>impoff</title><path class="cls-1" d="M92.41,86.6a13.24,13.24,0,1,0,23.51-8.36h0L105.65,65.08,95.43,78.17h0A13.19,13.19,0,0,0,92.41,86.6Z"/><path class="cls-2" d="M128.28,78.24h0L118,65.08,111.83,73l4.09,5.24h0a13.24,13.24,0,0,1-4.08,20.07,13.24,13.24,0,0,0,16.45-20.07Z"/><path class="cls-3" d="M140.65,78.24h0L130.38,65.08,124.2,73l4.09,5.24h0a13.24,13.24,0,0,1-4.08,20.07,13.24,13.24,0,0,0,16.45-20.07Z"/><path class="cls-4" d="M153,78.24h0L142.75,65.08,136.56,73l4.09,5.24h0a13.24,13.24,0,0,1-4.08,20.07A13.24,13.24,0,0,0,153,78.24Z"/><path class="cls-5" d="M142.75,98.54a12,12,0,0,1-3.42-.5,14.52,14.52,0,0,0,2.35-20.59h0L138.2,73l4.55-5.82L152,79l0,.06a11.95,11.95,0,0,1-9.27,19.49ZM127,98a11.95,11.95,0,0,0,12.69-19l0-.06-9.22-11.82L125.83,73l3.47,4.44h0A14.52,14.52,0,0,1,127,98Zm-12.37,0a14.52,14.52,0,0,0,2.35-20.59l-.06-.08L113.47,73,118,67.18,127.24,79l0,.06a11.95,11.95,0,0,1-12.69,19ZM154,77.46v0L143.77,64.28a1.29,1.29,0,0,0-1-.5h0a1.29,1.29,0,0,0-1,.5l-5.17,6.62-5.16-6.62a1.29,1.29,0,0,0-1-.5h0a1.29,1.29,0,0,0-1,.5L124.2,70.9,119,64.28a1.29,1.29,0,0,0-1-.5h0a1.29,1.29,0,0,0-1,.5l-5.16,6.62-5.16-6.62a1.29,1.29,0,0,0-2,0L98.1,72.65a1.29,1.29,0,1,0,2,1.59l5.51-7.06,5.12,6.55.09.12,3.91,5,.09.13A11.94,11.94,0,1,1,94,84.15a1.29,1.29,0,0,0-2.53-.53,14.54,14.54,0,0,0,14.23,17.51,14.44,14.44,0,0,0,6.18-1.38,14.52,14.52,0,0,0,12.37,0,14.52,14.52,0,0,0,12.37,0A14.53,14.53,0,0,0,154,77.46Z"/><path class="cls-6" d="M95.38,79.53h0a1.29,1.29,0,0,0,1-.53l0,0a1.29,1.29,0,0,0-2-1.59l0,.06a1.29,1.29,0,0,0,1,2.09Z"/><path class="cls-7" d="M85.48,59.4H68.74V48.33a11.14,11.14,0,0,1,8.65-10.78l3-.68-1,3a16.62,16.62,0,0,0-1,5.41,16.82,16.82,0,0,0,4.4,11.25ZM72.24,55.9H78a20.12,20.12,0,0,1-3.09-10.67,18.05,18.05,0,0,1,.23-2.86,7.59,7.59,0,0,0-2.94,6Z"/><path class="cls-8" d="M95.33,28.34A14.17,14.17,0,1,1,109.5,14.17,14.19,14.19,0,0,1,95.33,28.34Zm0-24.85A10.67,10.67,0,1,0,106,14.17,10.69,10.69,0,0,0,95.33,3.5ZM100.19,19H90.48V9.32h9.71ZM94,15.53h2.71V12.82H94Z"/><path class="cls-9" d="M66,102.88H18.63V48.33A17.3,17.3,0,0,1,35.91,31.06H79.8v3.5A13.79,13.79,0,0,0,66,48.33Zm-43.89-3.5H62.53V48.32a17.26,17.26,0,0,1,6.86-13.77H35.91A13.79,13.79,0,0,0,22.13,48.33Z"/><path class="cls-10" d="M85.48,28.34H14.17A14.17,14.17,0,1,1,14.17,0h71.3L82.84,2.92a16.82,16.82,0,0,0-4.4,11.25,16.82,16.82,0,0,0,4.4,11.25ZM14.17,3.5a10.67,10.67,0,1,0,0,21.35H78A20,20,0,0,1,78,3.5Z"/><path class="cls-11" d="M95.33,59.4A14.17,14.17,0,1,1,109.5,45.23,14.19,14.19,0,0,1,95.33,59.4Zm0-24.85A10.67,10.67,0,1,0,106,45.23,10.69,10.69,0,0,0,95.33,34.55Zm4.85,15.53H90.48V40.37h9.71ZM94,46.58h2.71V43.87H94Z"/><path class="cls-12" d="M15.92,59.4H14.17a14.17,14.17,0,1,1,0-28.34H25l-3.07,3a19.82,19.82,0,0,0-6,14.28ZM14.17,34.55a10.67,10.67,0,0,0-1.75,21.2V48.33a23.2,23.2,0,0,1,4.49-13.78Z"/><path class="cls-13" d="M90.87,84.24H68.74V62.11H90.87Zm-18.63-3.5H87.37V65.61H72.24Z"/></svg>