<?xml version="1.0" encoding="utf-8"?>
<!-- Generator: Adobe Illustrator 21.0.0, SVG Export Plug-In . SVG Version: 6.00 Build 0)  -->
<svg version="1.1" id="Capa_1" xmlns="http://www.w3.org/2000/svg" xmlns:xlink="http://www.w3.org/1999/xlink" x="0px" y="0px"
	 viewBox="0 0 95.9 94.3" style="enable-background:new 0 0 95.9 94.3;" xml:space="preserve">
<style type="text/css">
	.st0{fill:#5F4581;}
	.st1{fill:#D9CCE4;}
	.st2{fill:#EEE1FD;}
</style>
<title>cortplot</title>
<g>
	<path class="st0" d="M11.6,58.6c0,0,1.7,3,4,0.4c0.1-0.1,0.3-0.3,0.4-0.4c-1-0.5-4.2-2.2-7.1-3.7C10.4,57,11.6,58.6,11.6,58.6z"/>
	<path class="st0" d="M7.7,42.9l-2.2,1.2c0,0-2.5,1.5-1.2,3.9c0.1-0.1,0.1-0.1,0.1-0.1L7.7,42.9z"/>
	<path class="st0" d="M16.1,40.3c0,0-0.8-1.6-2.6-0.6l-1.4,0.7c0.9,0.4,3.9,1.7,6.4,2.7C17.2,41.6,16.1,40.3,16.1,40.3z"/>
	<path class="st0" d="M22.8,48.1c-0.2-0.2-0.4-0.4-0.6-0.6c-0.3,1.2-1,3.7-1.6,6.1c1.2-1.3,2-2.2,2-2.2S24.6,50,22.8,48.1z"/>
	<path class="st1" d="M4.2,48c-0.5,0.6-2.2,2.9,0.1,4.3c0.9,0.6,2.7,1.5,4.6,2.6c-1.7-2.4-3.7-5.3-4.6-6.6C4.3,48.2,4.3,48.1,4.2,48
		z"/>
	<path class="st1" d="M11.9,40.3c0,0-1.7-1.2-2.7,0.2l-1.5,2.3l4.5-2.4C12,40.4,11.9,40.3,11.9,40.3z"/>
	<path class="st1" d="M22.4,46.9c0,0,0.8-1.8-1.2-2.6c-0.6-0.2-1.6-0.6-2.7-1.1c1.3,1.5,2.7,3.2,3.7,4.4
		C22.4,47.1,22.4,46.9,22.4,46.9z"/>
	<path class="st1" d="M16.3,58.8c0,0,2.5,1.4,3.2-1.1c0.2-0.9,0.6-2.4,1.1-4.1c-1.4,1.6-3.3,3.6-4.6,5.1
		C16.2,58.7,16.3,58.8,16.3,58.8z"/>
	<path class="st2" d="M18.5,43.1c-2.4-1-5.5-2.3-6.4-2.7l-4.5,2.4l-3.3,5c0,0,0,0-0.1,0.1c0,0.1,0.1,0.2,0.2,0.3
		c0.9,1.4,2.9,4.3,4.6,6.6c2.9,1.5,6.1,3.2,7.1,3.7c1.3-1.5,3.2-3.5,4.6-5.1c0.6-2.4,1.3-4.9,1.6-6.1C21.2,46.3,19.8,44.6,18.5,43.1
		z"/>
</g>
<path class="st2" d="M39.2,52.5l-8.4-9.4c-0.1-0.1-0.2-0.1-0.3-0.1h-0.2c-0.2,0-0.3,0.2-0.3,0.3v12.7c0,0.2,0.2,0.3,0.3,0.3h1.2
	c0.2,0,0.3-0.2,0.3-0.3v-9l8.3,9.3c0.1,0.1,0.2,0.1,0.3,0.1h0.2c0.2,0,0.3-0.2,0.3-0.3V43.4c0-0.2-0.2-0.3-0.3-0.3h-1.1
	c-0.2,0-0.3,0.2-0.3,0.3V52.5z"/>
<path class="st2" d="M47.2,56.4h6.4c0.2,0,0.4-0.2,0.4-0.4v-1c0-0.2-0.2-0.4-0.4-0.4h-4.9v-4.6h4.9c0.2,0,0.4-0.2,0.4-0.4v-1
	c0-0.2-0.2-0.4-0.4-0.4h-4.9v-3.6h4.9c0.2,0,0.4-0.2,0.4-0.4v-1c0-0.2-0.2-0.4-0.4-0.4h-6.4c-0.2,0-0.3,0.2-0.3,0.3v12.7
	C46.8,56.3,47,56.4,47.2,56.4z"/>
<path class="st2" d="M72.3,49.7c0-2-0.7-3.6-2.1-5c-1.4-1.3-3.1-2-5.1-2c-1.3,0-2.5,0.3-3.6,0.9c-1.1,0.6-2,1.5-2.6,2.6
	c-0.6,1.1-1,2.3-1,3.6c0,1.9,0.7,3.6,2.1,4.9c1.4,1.3,3.1,2,5.1,2c1.3,0,2.5-0.3,3.6-0.9l0.7,0.9c0.1,0.1,0.1,0.1,0.2,0.1l1.7-0.1
	c0.2,0,0.3-0.2,0.2-0.4l-1.4-1.6c0.7-0.7,1.3-1.4,1.6-2.2C72.1,51.7,72.3,50.7,72.3,49.7z M70.4,49.7c0,1.4-0.5,2.7-1.5,3.7l-1.6-2
	c-0.1-0.1-0.1-0.1-0.2-0.1l-1.6,0.1c-0.2,0-0.4,0.3-0.2,0.5l2.2,2.6C66.7,54.8,65.9,55,65,55c-1.5,0-2.7-0.5-3.8-1.5
	c-1-1-1.6-2.3-1.6-3.7c0-1,0.2-1.9,0.7-2.7c0.5-0.8,1.1-1.4,2-1.9c0.8-0.5,1.7-0.7,2.7-0.7c0.9,0,1.8,0.2,2.7,0.7
	c0.8,0.5,1.5,1.1,2,1.9C70.2,47.8,70.4,48.7,70.4,49.7z"/>
<path class="st2" d="M83.7,51.1c0,1.2-0.1,1.7-0.1,2c-0.1,0.4-0.3,0.8-0.5,1.1c-0.2,0.3-0.6,0.5-0.9,0.7c-0.8,0.4-1.7,0.3-2.6-0.1
	c-0.5-0.2-0.8-0.5-1-0.8c-0.2-0.3-0.4-0.7-0.4-1.2c0-0.1-0.1-0.6-0.1-1.7v-7.7c0-0.2-0.2-0.4-0.4-0.4h-1.1c-0.2,0-0.4,0.2-0.4,0.4
	v7.7c0,1.3,0.1,2.3,0.3,2.8c0.3,0.9,0.8,1.6,1.6,2.1c0.8,0.5,1.8,0.8,2.9,0.8c1,0,1.9-0.3,2.7-0.8c0.7-0.6,1.2-1.2,1.5-2
	c0.2-0.7,0.4-1.7,0.4-2.9v-7.7c0-0.2-0.2-0.4-0.4-0.4H84c-0.2,0-0.4,0.2-0.4,0.4V51.1z"/>
<path class="st2" d="M90.8,43.4v12.7c0,0.2,0.2,0.4,0.4,0.4h1.1c0.2,0,0.4-0.2,0.4-0.4V43.4c0-0.2-0.2-0.4-0.4-0.4h-1.1
	C90.9,43,90.8,43.2,90.8,43.4z"/>
</svg>
