<svg id="Capa_1" data-name="Capa 1" xmlns="http://www.w3.org/2000/svg" xmlns:xlink="http://www.w3.org/1999/xlink" viewBox="0 0 659.18 279.59"><defs><style>.cls-1,.cls-2{fill:#231f20;}.cls-1,.cls-7{fill-rule:evenodd;}.cls-3{fill:url(#Degradado_sin_nombre_30);}.cls-4{fill:url(#Degradado_sin_nombre_30-2);}.cls-5{fill:url(#Degradado_sin_nombre_30-3);}.cls-6{fill:url(#Degradado_sin_nombre_30-4);}.cls-7{fill:url(#Degradado_sin_nombre_30-5);}.cls-8{fill:url(#Degradado_sin_nombre_31);}.cls-9{fill:gray;}</style><linearGradient id="Degradado_sin_nombre_30" x1="55.65" y1="116.47" x2="190.77" y2="116.47" gradientUnits="userSpaceOnUse"><stop offset="0" stop-color="#0095d4"/><stop offset="0.56" stop-color="#0570ac"/><stop offset="1" stop-color="#095891"/></linearGradient><linearGradient id="Degradado_sin_nombre_30-2" x1="68.28" y1="82.32" x2="169.49" y2="82.32" xlink:href="#Degradado_sin_nombre_30"/><linearGradient id="Degradado_sin_nombre_30-3" x1="84.71" y1="80.61" x2="197" y2="80.61" xlink:href="#Degradado_sin_nombre_30"/><linearGradient id="Degradado_sin_nombre_30-4" x1="113.44" y1="62.6" x2="256.69" y2="62.6" xlink:href="#Degradado_sin_nombre_30"/><linearGradient id="Degradado_sin_nombre_30-5" x1="150.29" y1="171.52" x2="330.52" y2="171.52" xlink:href="#Degradado_sin_nombre_30"/><linearGradient id="Degradado_sin_nombre_31" x1="258.59" y1="189.53" x2="630.75" y2="189.53" gradientUnits="userSpaceOnUse"><stop offset="0.02" stop-color="#e78041"/><stop offset="0.17" stop-color="#f7df29"/><stop offset="0.33" stop-color="#58ba63"/><stop offset="0.5" stop-color="#00a2e3"/><stop offset="0.56" stop-color="#029fe1"/><stop offset="0.59" stop-color="#0997d9"/><stop offset="0.62" stop-color="#1489cc"/><stop offset="0.64" stop-color="#2474ba"/><stop offset="0.67" stop-color="#385aa3"/><stop offset="0.67" stop-color="#3a58a1"/><stop offset="0.71" stop-color="#3d57a1"/><stop offset="0.73" stop-color="#45549f"/><stop offset="0.76" stop-color="#534e9d"/><stop offset="0.77" stop-color="#68469a"/><stop offset="0.79" stop-color="#823b96"/><stop offset="0.81" stop-color="#a32e92"/><stop offset="0.82" stop-color="#c91f8c"/><stop offset="0.83" stop-color="#e61388"/><stop offset="0.89" stop-color="#e61585"/><stop offset="0.93" stop-color="#e51b7d"/><stop offset="0.96" stop-color="#e4256f"/><stop offset="0.98" stop-color="#e2335a"/><stop offset="1" stop-color="#e04047"/></linearGradient></defs><title>pimad</title><path class="cls-1" d="M328,147.68c7.09,12.35,20.07,47.86,25.26,59-8.82-16-28-50.95-38.75-54.89,5.71.69,10.21-.86,13.5-4.12Z"/><path class="cls-2" d="M307.73,124.18c4.67,2.92,1,8.06,6.05,10.81-5.88-.51-2.42-5.49-6.05-10.81Z"/><path class="cls-3" d="M83.68,86.78c30.11,9.78,53.29,21.61,72,40.48,16.44,16.47,20.24,22.13,35.12,24,0,.51-.17,1.2-.17,1.71-21.63,2.23-21.63-8.23-40.66-24.7C129,110.11,85.58,94,55.65,85.24a223.9,223.9,0,0,1,65.92-5c6.92,2.92,13.49,5.83,19.72,9.09-28.37-5.66-50-3.94-57.61-2.57Z"/><path class="cls-4" d="M96.13,63.11c27,8.23,48.44,18.18,66.26,33.28l.18.51a136.9,136.9,0,0,1,6.92,12.18q-2.86-2.58-6.23-5.66C142,85.58,98.21,70.31,68.28,61.91a235.54,235.54,0,0,1,53.8-6.35c2.42,2.06,5,4.12,7.44,6.18-16.09-1-28,.34-33.39,1.37Z"/><path class="cls-5" d="M111.19,38.24c26,17.84,44.64,35.85,57.09,59.18,11.42,21.44,13.15,27.62,28.72,34l-.52,1c-23.7-3.77-20.07-13.55-33.91-35.51-14.71-23.5-51.73-51.12-77.86-68.1A215.56,215.56,0,0,1,157.9,46.3c5.54,5,10.9,10.12,15.74,15.44-29.07-17.15-54-22.64-62.46-23.5Z"/><path class="cls-6" d="M139.56,21.6C165,40.3,183.33,58.82,195.1,82.49c7.44,15.09,10.38,22.64,16.61,28.13l-3.12,3.09c-9-5.66-9.34-15.44-19.21-31.91C175.2,58,139,29.15,113.44,11.48,170.88,17,228.84,44.07,256.69,94.84l-1.21-.17c-45.68-56.09-102.25-71-115.92-73.08Z"/><path class="cls-7" d="M190.08,157.46h0c-5.71,35.34-17,66.21-39.79,90.91,24.57-38.6,26.47-51.8,39.79-90.91Zm0,0c2.77-36,33.22-76.68,89.1-58.15C322.44,91.93,337,110.45,328,147.68c5.88-38.42-8.48-50.43-48.79-48.37-36.16-3.95-73.7,2.4-89.1,58.15ZM183.33,224c18.51-20.75,18.34-35.51,35.64-36h0c-19,4.29-16.26,22-35.64,36ZM219,188c25.09-5.83,39.45-23.84,55.37-41.51,30.63,5,23.88-5.83,40.14,5.32-16.78-8.41-18.86,3.6-40.14-5.32C268.11,160.89,241.81,189.36,219,188Z"/><path class="cls-8" d="M274.16,235c-.52,2.06-.86,3.77-1,4.8a19.87,19.87,0,0,0-.17,2.91,8.57,8.57,0,0,0,.52,3.26,5.09,5.09,0,0,0,2.08,1.71,17.22,17.22,0,0,0,4.67.86l-.69,3.43H258.59l19.2-74.62a62.35,62.35,0,0,0,1.56-9.78,6.79,6.79,0,0,0-.52-2.92,3.48,3.48,0,0,0-1.9-1.54,22.67,22.67,0,0,0-4.67-.69l.86-3.43,15.4-.69h3.8l-5,17.5.87.17c8.65-12,17.13-18.18,25.26-18.18q7.53,0,11.42,5.66c2.6,3.6,3.81,8.92,3.63,15.61a53.59,53.59,0,0,1-2.42,14.58,46,46,0,0,1-5.88,13.21,42.48,42.48,0,0,1-8.13,9.78,37.76,37.76,0,0,1-9.34,5.66,29.86,29.86,0,0,1-10.21,1.89c-6.06,0-10.9-1.37-14.88-3.95Zm9-35.34c-.52,2.4-.87,4.29-1,5.49,0,1.2-.17,2.4-.17,3.6q-.26,5.4,2.07,7.72c1.38,1.54,4,2.4,7.79,2.4a15,15,0,0,0,6.23-1.37,18,18,0,0,0,5.71-3.95,29.74,29.74,0,0,0,4.84-6.17,42.46,42.46,0,0,0,4-8.41,63.16,63.16,0,0,0,2.77-9.78,66,66,0,0,0,1.21-9.61c0-4.63-.52-8.06-1.73-10.46a7,7,0,0,0-6.4-3.43,12,12,0,0,0-6.75,2.4,37.23,37.23,0,0,0-7.61,7.38,50.32,50.32,0,0,0-6.4,9.95,52.93,52.93,0,0,0-3.81,11.49Zm90.14-67.07-3.46,13H357.73l3.46-13Zm-18.69,73.76c-.52,2.23-.86,3.94-1,5a18,18,0,0,0-.35,2.57,8.58,8.58,0,0,0,.52,3.26,6.86,6.86,0,0,0,2.08,1.71,20.62,20.62,0,0,0,4.67.86l-.69,3.26H338.87l11.42-45.11c.69-2.57,1-4.63,1.38-6.18.17-1.54.35-2.91.35-3.95a5,5,0,0,0-.35-2.92,3.67,3.67,0,0,0-1.9-1.72,20.8,20.8,0,0,0-4.67-.69L346,159l16.44-.69h4ZM436.8,172v1a7.41,7.41,0,0,0-.17.86,57.78,57.78,0,0,1,11.94-12.18,22.6,22.6,0,0,1,12.29-3.95c4.33,0,7.44,1.2,9.69,3.6,2.08,2.4,3.11,6,2.94,10.63a41.24,41.24,0,0,1-1.56,10.29l-6.23,24a24.2,24.2,0,0,0-1.38,7.55,6.18,6.18,0,0,0,.52,3.26,6.89,6.89,0,0,0,2.07,1.71,17.27,17.27,0,0,0,4.67.86l-.69,3.26H449.6l9.34-34c.69-2.57,1.38-5,1.9-7.55a35.42,35.42,0,0,0,.86-6.86c.18-3.26-.35-5.49-1.38-6.86a6.69,6.69,0,0,0-5.36-2.06,11,11,0,0,0-6.06,2.23,33.91,33.91,0,0,0-6.92,6.52,53.4,53.4,0,0,0-6.06,8.75,38.17,38.17,0,0,0-4,10.64L425,223H413.27l8.82-34c1-4.29,1.73-7.21,2.08-9.26a35.42,35.42,0,0,0,.69-5.15c0-3.26-.52-5.49-1.56-6.86a6.7,6.7,0,0,0-5.36-2.06,11,11,0,0,0-6.05,2.23,31.15,31.15,0,0,0-7.09,6.69,62.16,62.16,0,0,0-6.06,8.92A41.4,41.4,0,0,0,395.1,194l-6.92,29H376.42l11.42-45.8a34.69,34.69,0,0,0,1-4.46,21,21,0,0,0,.69-5.15,5,5,0,0,0-.35-2.92,3.89,3.89,0,0,0-2.08-1.54,19.16,19.16,0,0,0-4.67-.69l1-3.43,15.4-.69h3.8l-5,17.33.87.34c4.33-6.17,8.48-10.63,12.8-13.72,4.15-2.92,8.3-4.46,12.46-4.46,4.33,0,7.61,1.2,9.86,3.77,2.07,2.4,3.11,5.83,3.11,10.46Zm102.42-9.78,6.4-4.46,4.15,1-11.42,45.63q-1,3.86-1.56,6.17a31.42,31.42,0,0,0-.34,3.6c0,1.72.34,3.09,1.38,3.95s2.94,1.37,5.88,1.54L543,223H523.82l4.67-16.81-.87-.17c-4.5,6.18-8.82,10.81-12.8,13.72A19.82,19.82,0,0,1,502.54,224c-5,0-8.82-1.89-11.42-5.49-2.6-3.77-4-8.92-3.81-15.61a69.82,69.82,0,0,1,1.91-13,57.6,57.6,0,0,1,4.84-12.18,46.42,46.42,0,0,1,7.44-10.29,35.69,35.69,0,0,1,9.86-7,28.91,28.91,0,0,1,12.11-2.57,29.78,29.78,0,0,1,8,1,22.14,22.14,0,0,1,7.79,3.43Zm-6.4,19.9c.35-1.71.69-3.43.86-4.8.17-1.2.17-2.74.35-4.29,0-3.43-.69-6-2.07-7.55-1.39-1.72-4-2.4-7.44-2.4a16.06,16.06,0,0,0-10.73,3.95,32.35,32.35,0,0,0-5.19,5.49,45.51,45.51,0,0,0-4.5,8.23,63.67,63.67,0,0,0-3.29,10.63,46.17,46.17,0,0,0-1.38,10.81c-.17,4.63.35,8.23,1.56,10.46a6.83,6.83,0,0,0,6.4,3.43,14.86,14.86,0,0,0,4.5-.86,23.63,23.63,0,0,0,5-3.6,42.79,42.79,0,0,0,6.57-7.38,47.52,47.52,0,0,0,5.19-8.92,59.5,59.5,0,0,0,3.46-10.29Zm82.18-36c.35-1.54.69-3.26,1-5a25.17,25.17,0,0,0,.52-4.63,5.13,5.13,0,0,0-.69-3.09,4.74,4.74,0,0,0-2.08-1.54,21.25,21.25,0,0,0-5-.69l1-3.43,17-.69h4L611.2,204.46l-1.56,6.17a31,31,0,0,0-.35,3.6c0,1.72.35,3.09,1.38,3.95s3.12,1.37,5.89,1.54l-.69,3.26H596.66l4.67-16.81-.87-.17c-4.5,6.18-8.82,10.81-12.63,13.72A20.67,20.67,0,0,1,575.38,224c-5,0-8.83-1.89-11.42-5.49-2.59-3.77-3.8-8.92-3.63-15.61a53.39,53.39,0,0,1,6.57-25.22,46.42,46.42,0,0,1,7.44-10.29,35.73,35.73,0,0,1,9.86-7,28.93,28.93,0,0,1,12.11-2.57,34.42,34.42,0,0,1,7.61.86,27,27,0,0,1,7.09,2.92Zm-9.34,36a59.83,59.83,0,0,0,1.21-9.09c0-3.43-.69-6-2.08-7.55-1.38-1.72-3.8-2.4-7.27-2.4A19.65,19.65,0,0,0,592,164a16.58,16.58,0,0,0-5.19,3.09,27.23,27.23,0,0,0-5.37,5.49,45.32,45.32,0,0,0-4.5,8.23,64,64,0,0,0-3.29,10.63,46.33,46.33,0,0,0-1.38,10.81c-.17,4.63.35,8.23,1.56,10.46a7,7,0,0,0,6.4,3.43,14.86,14.86,0,0,0,4.5-.86,23.53,23.53,0,0,0,5-3.6,42.74,42.74,0,0,0,6.57-7.38,47.36,47.36,0,0,0,5.19-8.92A59.83,59.83,0,0,0,605,185.07Z"/><path class="cls-2" d="M368.8,123.66h-3.29l-5.71-20.24H343l-5.71,20.24H334L350.64,66.2h1.9Zm-9.86-23.84-5.71-20.59c-.35-1.54-1-3.77-1.73-6.69-.52,2.4-1,4.63-1.56,6.86l-5.88,20.41Zm39.62,18h5.36c3.29,0,5.88.86,7.61,2.74s2.6,4.63,2.6,8.23c0,4.63-1.21,8.06-3.81,10.46s-6.4,3.6-11.25,3.6c-3.8,0-6.92-1-9-3.09S387,135,387,131.21a11.82,11.82,0,0,1,1.9-7.2,9.64,9.64,0,0,1,5.36-3.95,5.07,5.07,0,0,1-2.25-2.4,7.73,7.73,0,0,1-.87-3.43c0-2.92,1.38-5.32,4-7.55a8.84,8.84,0,0,1-4.15-4.8,17.31,17.31,0,0,1-1.56-7.55,16.38,16.38,0,0,1,2.94-10.12,9.33,9.33,0,0,1,8-3.94,11.94,11.94,0,0,1,4.67.86h9.69v2.74l-6.23.51A20.31,20.31,0,0,1,410.84,94c0,4.12-.86,7.55-2.94,10a9.1,9.1,0,0,1-7.79,3.77,12.49,12.49,0,0,1-2.94-.17,7.34,7.34,0,0,0-3.46,6.35,3.51,3.51,0,0,0,1,2.92,5.91,5.91,0,0,0,3.8,1Zm9.52-23.67c0-3.6-.69-6.17-2.08-8.06a7.35,7.35,0,0,0-11.59.17c-1.56,2.06-2.25,4.63-2.25,8.06,0,3.26.69,6,2.25,7.72a6.94,6.94,0,0,0,5.88,2.75A6.62,6.62,0,0,0,406,102c1.38-1.71,2.08-4.46,2.08-7.89Zm-4.67,27.62h-5c-5.71,0-8.48,2.92-8.48,9.09q0,8.75,9.34,8.75c8.13,0,12.11-3.6,12.11-10.63,0-2.57-.69-4.46-1.9-5.66-1.21-1-3.29-1.54-6.06-1.54Zm46.89,2.75a11.89,11.89,0,0,1-10.55-5.83q-3.64-5.66-3.63-16c0-6.69,1.21-12.18,3.63-16.3s5.54-6.17,9.69-6.17c3.63,0,6.4,1.89,8.48,5.32,2.25,3.43,3.29,8.23,3.29,14.24v3.09H439c0,5.83,1,10.29,2.94,13.38a9.18,9.18,0,0,0,8.3,4.63,19.44,19.44,0,0,0,4.67-.51,19.77,19.77,0,0,0,5-2.23v3.6a18.61,18.61,0,0,1-4.85,2.06,15,15,0,0,1-4.84.69Zm7.79-25c0-5-.69-8.75-2.25-11.49s-3.8-4.29-6.57-4.29c-2.94,0-5.19,1.37-6.92,4.12s-2.77,6.69-3.12,11.66Zm42-19.21c6.92,0,10.55,5.32,10.55,15.61v27.79h-2.77V96q0-6.43-2.08-9.26a6.76,6.76,0,0,0-6.05-2.92c-3.63,0-6.23,1.2-8,3.77s-2.59,6.69-2.59,12.52v23.5h-2.77V81.12h2.42l.52,5.83h.17c1.9-4.46,5.54-6.69,10.55-6.69Zm49.48,44.26a11.7,11.7,0,0,1-10.21-5.83c-2.6-3.77-3.81-9.26-3.81-16.12,0-7,1.21-12.35,3.81-16.3a12.34,12.34,0,0,1,10.73-6,17.22,17.22,0,0,1,7.61,1.89l-.86,3.6a14.55,14.55,0,0,0-6.92-1.89,9.27,9.27,0,0,0-8.48,4.8c-1.9,3.26-2.94,7.72-2.94,13.72,0,5.83,1,10.46,2.94,13.72a8.93,8.93,0,0,0,8.13,4.8,15.54,15.54,0,0,0,7.78-2.06v3.6a13.45,13.45,0,0,1-7.78,2.06Zm33.39-59c.69,0,1,.34,1.38,1a7.5,7.5,0,0,1,0,5.49c-.34.69-.69,1-1.38,1-1.21,0-1.73-1.2-1.73-3.77,0-2.4.52-3.77,1.73-3.77Zm1.38,58.15h-2.77V81.12h2.77Zm27.86-40a17.86,17.86,0,0,1,10-3.26c3.29,0,5.89,1.2,7.44,3.6q2.6,3.6,2.59,11.32v28.3h-2.08l-.69-6.69h-.35a19.14,19.14,0,0,1-4.67,5.83,10.77,10.77,0,0,1-5.88,1.72,8.64,8.64,0,0,1-6.92-3.26c-1.73-2.06-2.59-5.15-2.59-9.09,0-4.12,1.21-7.2,3.81-9.43q3.63-3.6,10.9-3.6l5.71-.34V96c0-4.12-.52-7.21-1.73-9.26a6.25,6.25,0,0,0-5.89-3.09c-2.59,0-5.54,1.2-8.65,3.43Zm0,28.82c0,2.75.52,4.8,1.73,6.18a5.5,5.5,0,0,0,4.85,2.23,8.83,8.83,0,0,0,7.78-3.95c1.9-2.57,2.94-6.17,2.94-10.81V102l-5.36.34c-4.33.17-7.44,1.2-9.34,2.75-1.73,1.54-2.59,4.12-2.59,7.38Z"/><path class="cls-9" d="M284.55,226.58h3.29c3.29,0,5,1.71,5,5.49a6.23,6.23,0,0,1-1.38,4.12,4.85,4.85,0,0,1-3.81,1.54h-2.25v7.72h-.86Zm.86,1.2v8.75h1.9a4.91,4.91,0,0,0,3.46-1,4.8,4.8,0,0,0,1-3.43,4.62,4.62,0,0,0-1-3.26,4.26,4.26,0,0,0-3.12-1Zm18.17,17.67h-.69l-.17-1.89h-.17a3.25,3.25,0,0,1-3.46,2.23q-3.64,0-3.64-5.15v-9.26h1v9.09c0,1.54.17,2.57.69,3.09a2,2,0,0,0,1.9,1,3,3,0,0,0,2.77-1.2,8.1,8.1,0,0,0,.87-4.12v-7.89h.86Zm4.5-20.07v7.2l-.17,1h.17a4.16,4.16,0,0,1,1.38-1.89,3.71,3.71,0,0,1,2.08-.52,3.3,3.3,0,0,1,3.11,1.71,13,13,0,0,1,0,11,3.72,3.72,0,0,1-3.29,1.89,2.61,2.61,0,0,1-1.9-.69,3.43,3.43,0,0,1-1.38-1.72h-.17l-.17,2.06H307V225.38Zm0,13v.17c0,2.23.17,3.78.87,4.63a2.46,2.46,0,0,0,2.42,1.37,2.68,2.68,0,0,0,2.6-1.54,10.47,10.47,0,0,0,.87-4.63c0-4.12-1.21-6.17-3.46-6.17a2.69,2.69,0,0,0-2.59,1.54c-.52.86-.69,2.4-.69,4.63Zm11.59,7h-1V225.38h1Zm3.81-19.21c.34,0,.34.17.52.34a1.26,1.26,0,0,1,.18.86,1.82,1.82,0,0,1-.18,1c-.17.17-.17.34-.52.34s-.52-.51-.52-1.37c0-.69.17-1.2.52-1.2Zm.52,19.21h-.87V231.39H324Zm7.61.34a4,4,0,0,1-3.46-1.89,9.73,9.73,0,0,1-1.21-5.32,10,10,0,0,1,1.21-5.49,3.93,3.93,0,0,1,3.63-1.89,7,7,0,0,1,2.59.52l-.34,1.2a8,8,0,0,0-2.25-.69,3.35,3.35,0,0,0-2.94,1.72,8.11,8.11,0,0,0-1,4.46,8.76,8.76,0,0,0,1,4.63,3.12,3.12,0,0,0,2.77,1.54,4.93,4.93,0,0,0,2.6-.69v1.2a4.2,4.2,0,0,1-2.6.69Zm5.54-19.56c.17,0,.35.17.52.34a1.28,1.28,0,0,1,.17.86,1.86,1.86,0,0,1-.17,1c-.17.17-.35.34-.52.34-.35,0-.52-.51-.52-1.37,0-.69.17-1.2.52-1.2Zm.52,19.21h-.87V231.39h.87Zm11.59,0h-.69l-.17-2.06h-.17a3.64,3.64,0,0,1-3.29,2.4,3.71,3.71,0,0,1-3.28-1.89,10.48,10.48,0,0,1-1.21-5.32,11.19,11.19,0,0,1,1.21-5.49,3.4,3.4,0,0,1,3.28-1.89,3.52,3.52,0,0,1,1.91.52,4.13,4.13,0,0,1,1.38,1.89h.17c0-1-.17-2.23-.17-3.26v-5h1Zm-1-6.86v-.17c0-2.23-.17-3.77-.69-4.63a2.68,2.68,0,0,0-2.59-1.54,2.83,2.83,0,0,0-2.59,1.72,10.51,10.51,0,0,0-.86,4.63c0,4.12,1.21,6,3.46,6a2.56,2.56,0,0,0,2.59-1.37c.52-.86.69-2.4.69-4.63Zm4.67-6.35a6.73,6.73,0,0,1,3.46-1,2.62,2.62,0,0,1,2.42,1.2c.69.86.87,2.06.87,3.77v9.26h-.69l-.17-2.23h-.17a7.17,7.17,0,0,1-1.56,2.06,3.51,3.51,0,0,1-1.9.51,2.91,2.91,0,0,1-2.42-1,5.06,5.06,0,0,1-.86-3.09,3.76,3.76,0,0,1,1.38-3.09c.69-.86,1.91-1.2,3.63-1.2l1.9-.17v-.86a5.11,5.11,0,0,0-.69-3.09,2,2,0,0,0-1.9-1,4.7,4.7,0,0,0-2.94,1.2Zm0,9.61a3.64,3.64,0,0,0,.52,2.06,2.23,2.23,0,0,0,1.73.69,2.74,2.74,0,0,0,2.59-1.2,5.92,5.92,0,0,0,1-3.6v-1.37h-1.9a6.6,6.6,0,0,0-3.11,1,3.09,3.09,0,0,0-.87,2.4Zm18.17,3.6h-.52l-.35-2.06h0c-.87,1.55-1.9,2.4-3.29,2.4a3.53,3.53,0,0,1-3.29-1.89c-.87-1.2-1.21-2.92-1.21-5.32a11.45,11.45,0,0,1,1-5.49,3.58,3.58,0,0,1,3.29-1.89,3.29,3.29,0,0,1,3.46,2.4h0v-8.23h.87Zm-.87-6.86v-.17a9.45,9.45,0,0,0-.87-4.63,2.61,2.61,0,0,0-2.42-1.54,2.83,2.83,0,0,0-2.59,1.72c-.69,1-.87,2.57-.87,4.63,0,4.12,1,6,3.29,6a2.55,2.55,0,0,0,2.59-1.37,9.45,9.45,0,0,0,.87-4.63Zm10.73,6.86h-1V226.58h1Zm14-14.24a2.74,2.74,0,0,1,2.59,1.2,7.43,7.43,0,0,1,.86,3.95v9.09h-.86v-9.26a6.6,6.6,0,0,0-.69-2.92,1.91,1.91,0,0,0-1.73-1,3,3,0,0,0-2.42,1.2,7.34,7.34,0,0,0-.69,3.77v8.23h-1v-9.61c0-2.4-.69-3.6-2.42-3.6a2.5,2.5,0,0,0-2.25,1.37,8.15,8.15,0,0,0-.86,4.12v7.72h-.87V231.39h.69l.35,1.89h0a3.71,3.71,0,0,1,1.21-1.54,2.92,2.92,0,0,1,1.73-.52,3,3,0,0,1,3.12,2.4h0a7.6,7.6,0,0,1,1.38-1.89,3.52,3.52,0,0,1,1.91-.52Zm11.24,0a3.17,3.17,0,0,1,3.12,1.89c.87,1.2,1.21,2.92,1.21,5.32a11.76,11.76,0,0,1-1.21,5.49,3.61,3.61,0,0,1-6.58-.52h-.17v1a7.09,7.09,0,0,1,.17,2.06V252h-1V231.39h.87l.17,2.06h0a3.53,3.53,0,0,1,3.46-2.23Zm-3.46,6.86v.34a11.28,11.28,0,0,0,.69,4.8,3.15,3.15,0,0,0,2.77,1.37,2.79,2.79,0,0,0,2.42-1.54,10.18,10.18,0,0,0,.87-4.46c0-4.29-1.21-6.35-3.29-6.35a2.85,2.85,0,0,0-2.59,1.37c-.69,1-.87,2.4-.87,4.46Zm14.71-6.86a4.3,4.3,0,0,1,1.38.17l-.17,1.2a3.85,3.85,0,0,0-1.38-.17A2.76,2.76,0,0,0,415,234a7.77,7.77,0,0,0-.69,3.77v7.72h-1V231.39h.87V234h.17a5.51,5.51,0,0,1,1.38-2.23,2.59,2.59,0,0,1,1.73-.52ZM425,245.8a4,4,0,0,1-3.46-1.89,9.71,9.71,0,0,1-1.38-5.32,12.34,12.34,0,0,1,1.21-5.49,3.93,3.93,0,0,1,3.29-1.89,3.22,3.22,0,0,1,2.94,1.71,9.19,9.19,0,0,1,1,4.63v1h-7.44a7.72,7.72,0,0,0,1,4.46A3.12,3.12,0,0,0,425,244.6a3.86,3.86,0,0,0,1.56-.17,12.2,12.2,0,0,0,1.73-.69v1.2c-.69.34-1.21.51-1.56.69-.52,0-1.21.17-1.73.17Zm2.59-8.23a8.54,8.54,0,0,0-.69-3.95,2.5,2.5,0,0,0-2.25-1.37,2.7,2.7,0,0,0-2.25,1.37,6.34,6.34,0,0,0-1,3.95Zm2.94,6a5.72,5.72,0,0,0,3.29,1,3.41,3.41,0,0,0,2.42-.69A2.34,2.34,0,0,0,437,242a2.55,2.55,0,0,0-.52-1.71,8.46,8.46,0,0,0-2.25-1.54c-.87-.51-1.56-.86-2.08-1.2a5.91,5.91,0,0,1-.86-1.37,2.28,2.28,0,0,1-.35-1.54,3.85,3.85,0,0,1,.86-2.57,3.59,3.59,0,0,1,2.77-.86,5,5,0,0,1,3.12.86l-.35,1a6.38,6.38,0,0,0-2.77-.86,2.17,2.17,0,0,0-1.9.69,1.8,1.8,0,0,0-.86,1.54,2,2,0,0,0,.69,1.71,4,4,0,0,0,2.07,1.37,8.16,8.16,0,0,1,2.08,1.37,3.64,3.64,0,0,1,1.38,2.91,4,4,0,0,1-1,2.92,4.25,4.25,0,0,1-3.11,1,6.19,6.19,0,0,1-3.29-.86Zm10.21-11.32a6.72,6.72,0,0,1,3.46-1,2.63,2.63,0,0,1,2.42,1.2c.69.86.86,2.06.86,3.77v9.26h-.69l-.17-2.23h-.17a7.05,7.05,0,0,1-1.56,2.06,3.51,3.51,0,0,1-1.9.51,3.16,3.16,0,0,1-2.42-1,5.08,5.08,0,0,1-.86-3.09,3.76,3.76,0,0,1,1.38-3.09,4.89,4.89,0,0,1,3.63-1.2l1.9-.17v-.86a7.17,7.17,0,0,0-.52-3.09,2.48,2.48,0,0,0-2.08-1,4.69,4.69,0,0,0-2.94,1.2Zm0,9.61a2.72,2.72,0,0,0,.69,2.06,1.69,1.69,0,0,0,1.56.69,2.74,2.74,0,0,0,2.59-1.2,5.92,5.92,0,0,0,1-3.6v-1.37h-1.9a5.29,5.29,0,0,0-2.94,1,2.67,2.67,0,0,0-1,2.4Zm17.3-7.89a6.27,6.27,0,0,1-1.39-3.6,4.46,4.46,0,0,1,1-3.09,2.92,2.92,0,0,1,2.42-1,2.8,2.8,0,0,1,2.25,1,3.94,3.94,0,0,1,.87,2.92,4.82,4.82,0,0,1-.69,2.57,9.24,9.24,0,0,1-2.25,2.4l4.15,6a11.32,11.32,0,0,0,1.73-4.63h.86a17.23,17.23,0,0,1-1.9,5.49l2.59,3.43h-1.38l-1.73-2.57a19.13,19.13,0,0,1-1.56,1.72,5,5,0,0,1-3.46,1.2,3.82,3.82,0,0,1-3.12-1.37,5.8,5.8,0,0,1-1-3.77,4.89,4.89,0,0,1,.69-2.92,7.41,7.41,0,0,1,2.59-2.74Zm4.15-3.77a3.63,3.63,0,0,0-.52-2.06,1.69,1.69,0,0,0-1.56-.69,2,2,0,0,0-1.73.69,3.68,3.68,0,0,0-.69,2.06,4.53,4.53,0,0,0,.52,2.06,13,13,0,0,0,1.38,2.23,11.31,11.31,0,0,0,2.07-2.06,4.71,4.71,0,0,0,.52-2.23Zm-4.67,7.2a4.24,4.24,0,0,0-1.21,3.26,4.86,4.86,0,0,0,.87,2.91,3.28,3.28,0,0,0,2.59,1,4.15,4.15,0,0,0,2.08-.51,6.9,6.9,0,0,0,2.08-1.89l-4.67-6.35c-.69.69-1.38,1.2-1.73,1.54ZM488,245.45h-1V231.21c0-1,.17-2.06.17-3.26h0l-5.36,17.5h-.52L476.07,228h0v17.5h-.86V226.58h1.38l5,16.64h0l5-16.64H488Zm4-13.21a6.18,6.18,0,0,1,3.29-1,2.92,2.92,0,0,1,2.59,1.2,7.17,7.17,0,0,1,.86,3.77v9.26H498l-.35-2.23h0a5.24,5.24,0,0,1-1.73,2.06,3.12,3.12,0,0,1-1.9.51,2.59,2.59,0,0,1-2.25-1,4.15,4.15,0,0,1-.86-3.09,3.65,3.65,0,0,1,1.21-3.09,4.91,4.91,0,0,1,3.63-1.2l1.9-.17v-.86a7.13,7.13,0,0,0-.52-3.09,2.1,2.1,0,0,0-2.08-1,4.29,4.29,0,0,0-2.77,1.2Zm-.17,9.61a3.67,3.67,0,0,0,.69,2.06,1.83,1.83,0,0,0,1.73.69,3.12,3.12,0,0,0,2.59-1.2,7.41,7.41,0,0,0,.86-3.6v-1.37H496a5.41,5.41,0,0,0-3.11,1,2.66,2.66,0,0,0-1,2.4ZM506,231.21a3.84,3.84,0,0,1,1.38.17l-.17,1.2a3,3,0,0,0-1.21-.17,2.55,2.55,0,0,0-2.25,1.54,7.59,7.59,0,0,0-.86,3.77v7.72H502V231.39h.69l.17,2.57h0a17.62,17.62,0,0,1,1.38-2.23,2.94,2.94,0,0,1,1.73-.52Zm4.5,14.24h-.86V225.38h.86v13.89h0l5.19-7.89h1.21l-4,6,4.33,8.06h-1l-4-7-1.73,2.06Zm12.63.34a4,4,0,0,1-3.46-1.89,9.74,9.74,0,0,1-1.21-5.32,10.37,10.37,0,0,1,1.21-5.49,3.65,3.65,0,0,1,3.12-1.89,3,3,0,0,1,2.94,1.71,9.19,9.19,0,0,1,1,4.63v1h-7.44a7.72,7.72,0,0,0,1,4.46,3.12,3.12,0,0,0,2.77,1.54,3.86,3.86,0,0,0,1.56-.17,12.07,12.07,0,0,0,1.73-.69v1.2a10.87,10.87,0,0,1-1.56.69c-.52,0-1,.17-1.73.17Zm2.59-8.23a8.53,8.53,0,0,0-.69-3.95,2.49,2.49,0,0,0-2.25-1.37,2.7,2.7,0,0,0-2.25,1.37,6.34,6.34,0,0,0-1,3.95Zm4.84-6.17h3.12v1.2h-3.12v8.92a4.51,4.51,0,0,0,.52,2.4,1.41,1.41,0,0,0,1.38.69,3.4,3.4,0,0,0,1.38-.17v1a3.5,3.5,0,0,1-1.56.34,2,2,0,0,1-1.9-1,5.14,5.14,0,0,1-.69-3.09v-9.09h-1.56v-.86l1.56-.52.52-3.26h.35Zm6.06-5.15c.17,0,.35.17.52.34a7.24,7.24,0,0,1,.18.86c0,.51-.18.69-.18,1-.17.17-.35.34-.52.34-.35,0-.52-.51-.52-1.37,0-.69.17-1.2.52-1.2Zm.52,19.21h-1V231.39h1Zm8-14.24q3.63,0,3.63,5.15v9.09h-1v-9.09a7.12,7.12,0,0,0-.52-3.09,2.47,2.47,0,0,0-2.07-1,3.37,3.37,0,0,0-2.77,1.37,8.1,8.1,0,0,0-.87,4.12v7.72h-.86V231.39h.69l.17,1.89h.17a3.64,3.64,0,0,1,3.46-2.06Zm9.51,12.35h1.91a4.27,4.27,0,0,1,2.59.86,4.34,4.34,0,0,1,.87,2.74,4.23,4.23,0,0,1-1.38,3.43,5.12,5.12,0,0,1-3.81,1.37,4.09,4.09,0,0,1-2.94-1,4,4,0,0,1-1-2.91,5,5,0,0,1,.52-2.4,3.92,3.92,0,0,1,1.91-1.37,3,3,0,0,1-.87-.69,2.53,2.53,0,0,1-.17-1.2,3,3,0,0,1,1.21-2.4,3.6,3.6,0,0,1-1.38-1.72,5.49,5.49,0,0,1-.52-2.4,5.41,5.41,0,0,1,1-3.43,3.13,3.13,0,0,1,2.6-1.2,5.38,5.38,0,0,1,1.73.17h3.29v.86l-2.25.17a5.44,5.44,0,0,1,.87,3.26,6,6,0,0,1-.87,3.26,3.36,3.36,0,0,1-2.77,1.37,1.88,1.88,0,0,1-1-.17,2.44,2.44,0,0,0-1,2.06,1.46,1.46,0,0,0,.35,1,2,2,0,0,0,1.21.34Zm3.29-7.89a5.08,5.08,0,0,0-.69-2.57,2.48,2.48,0,0,0-2.08-1,2.39,2.39,0,0,0-1.9,1,4.31,4.31,0,0,0-.69,2.75,4.09,4.09,0,0,0,.69,2.57,2.86,2.86,0,0,0,2.07.86,2.79,2.79,0,0,0,1.9-.86,5.8,5.8,0,0,0,.69-2.74Zm-1.56,9.26h-1.73c-1.9,0-2.94.86-2.94,2.91s1,2.92,3.29,2.92c2.59,0,4-1.2,4-3.43a2.13,2.13,0,0,0-.69-1.89,2.81,2.81,0,0,0-1.91-.51Zm11.25-18.35h3.63c2.25,0,4,.69,5,2.4,1.21,1.54,1.73,3.95,1.73,7s-.52,5.49-1.73,7a6.15,6.15,0,0,1-5.36,2.4H567.6Zm.87,1.2v16.64h2.25c4.15,0,6.23-2.92,6.23-8.58a11.44,11.44,0,0,0-1.38-6,5.37,5.37,0,0,0-4.5-2.06Zm13-1.54c.17,0,.35.17.52.34a1.29,1.29,0,0,1,.17.86,1.87,1.87,0,0,1-.17,1c-.18.17-.35.34-.52.34-.35,0-.52-.51-.52-1.37,0-.69.17-1.2.52-1.2Zm.52,19.21h-.87V231.39H582Zm6.06-1.89h1.9a3.44,3.44,0,0,1,2.42.86,3.6,3.6,0,0,1,1,2.74A4.24,4.24,0,0,1,592,250.6a5.12,5.12,0,0,1-3.8,1.37A3.84,3.84,0,0,1,584,248a4.93,4.93,0,0,1,.69-2.4,3.92,3.92,0,0,1,1.91-1.37,1.7,1.7,0,0,1-.87-.69,2.53,2.53,0,0,1-.17-1.2,3,3,0,0,1,1.21-2.4,3.58,3.58,0,0,1-1.38-1.72,6,6,0,0,1,.52-5.83,3.13,3.13,0,0,1,2.6-1.2,3.86,3.86,0,0,1,1.56.17h3.46v.86l-2.25.17a7,7,0,0,1,.87,3.26,4.92,4.92,0,0,1-1,3.26,3.05,3.05,0,0,1-2.59,1.37c-.52,0-.87,0-1-.17a2.44,2.44,0,0,0-1,2.06c0,.51,0,.86.35,1a2,2,0,0,0,1.21.34Zm3.28-7.89a5.12,5.12,0,0,0-.69-2.57,2.48,2.48,0,0,0-2.08-1,2.17,2.17,0,0,0-1.9,1,4.31,4.31,0,0,0-.69,2.75,4.09,4.09,0,0,0,.69,2.57,2.78,2.78,0,0,0,1.9.86,2.88,2.88,0,0,0,2.08-.86,5.84,5.84,0,0,0,.69-2.74Zm-1.73,9.26H588c-1.91,0-2.94.86-2.94,2.91s1,2.92,3.29,2.92c2.59,0,4-1.2,4-3.43a2.12,2.12,0,0,0-.69-1.89,3,3,0,0,0-2.07-.51Zm6.57-18.7a.37.37,0,0,1,.35.34,1.28,1.28,0,0,1,.17.86,1.86,1.86,0,0,1-.17,1,.37.37,0,0,1-.35.34c-.52,0-.69-.51-.69-1.37,0-.69.17-1.2.69-1.2Zm.35,19.21h-.87V231.39h.87Zm4.5-14.07h2.94v1.2H601v8.92a7.82,7.82,0,0,0,.35,2.4,1.58,1.58,0,0,0,1.38.69,3.87,3.87,0,0,0,1.56-.17v1a5.1,5.1,0,0,1-1.56.34,2.47,2.47,0,0,1-2.07-1,6.82,6.82,0,0,1-.69-3.09v-9.09h-1.38v-.86l1.38-.52.52-3.26H601Zm5.71.86a6.73,6.73,0,0,1,3.46-1,2.62,2.62,0,0,1,2.42,1.2c.7.86.87,2.06.87,3.77v9.26h-.69l-.18-2.23h-.17a7.1,7.1,0,0,1-1.56,2.06,3.51,3.51,0,0,1-1.9.51,2.92,2.92,0,0,1-2.42-1,5.08,5.08,0,0,1-.86-3.09,3.75,3.75,0,0,1,1.38-3.09c.69-.86,1.9-1.2,3.63-1.2l1.9-.17v-.86a5.14,5.14,0,0,0-.69-3.09,2,2,0,0,0-1.91-1,4.69,4.69,0,0,0-2.94,1.2Zm0,9.61a3.65,3.65,0,0,0,.52,2.06,2.24,2.24,0,0,0,1.73.69,2.74,2.74,0,0,0,2.59-1.2,5.92,5.92,0,0,0,1-3.6v-1.37h-1.9a6.61,6.61,0,0,0-3.11,1,3.1,3.1,0,0,0-.87,2.4Zm11.07,3.6h-1V225.38h1Z"/></svg>