<?xml version="1.0" encoding="utf-8"?>
<!-- Generator: Adobe Illustrator 21.0.0, SVG Export Plug-In . SVG Version: 6.00 Build 0)  -->
<svg version="1.1" id="Capa_1" xmlns="http://www.w3.org/2000/svg" xmlns:xlink="http://www.w3.org/1999/xlink" x="0px" y="0px"
	 viewBox="0 0 100.4 100.4" style="enable-background:new 0 0 100.4 100.4;" xml:space="preserve">
<style type="text/css">
	.st0{fill:url(#SVGID_1_);}
</style>
<title>digra</title>
<radialGradient id="SVGID_1_" cx="50.225" cy="50.225" r="37.3037" gradientUnits="userSpaceOnUse">
	<stop  offset="0" style="stop-color:#0089CF"/>
	<stop  offset="0.18" style="stop-color:#0181C7"/>
	<stop  offset="0.46" style="stop-color:#056CB3"/>
	<stop  offset="0.79" style="stop-color:#0A4A91"/>
	<stop  offset="1" style="stop-color:#0E3178"/>
</radialGradient>
<path class="st0" d="M53,4.7C53,4.7,53,4.7,53,4.7L66.3,13c0,0,0,0,0,0l-6.6,16.5c0,0,0,0,0,0c0,0,0,0,0,0l-11.4-1.1
	c-0.1,0-0.2,0-0.3,0c-1.4,0-2.8,0.9-3.3,2.3c-4.5,12.6-4.5,26.4,0,39c0.5,1.4,1.8,2.3,3.3,2.3c0.1,0,0.2,0,0.3,0l11.4-1.1
	c0,0,0,0,0,0l6.6,16.5c0,0,0,0,0,0l-13.2,8.3c0,0,0,0,0,0c0,0,0,0,0,0c-6.2-6.2-10.9-13.3-14.1-21.3c-3.1-7.7-4.7-15.9-4.7-24.2
	c0-8.4,1.6-16.5,4.7-24.2C42.1,18,46.9,10.8,53,4.7C53,4.7,53,4.7,53,4.7 M53,1.2c-0.9,0-1.8,0.3-2.5,1c-26.5,26.5-26.5,69.4,0,95.9
	c0.7,0.7,1.6,1,2.5,1c0.6,0,1.3-0.2,1.9-0.5l13.2-8.3c1.4-0.9,2-2.7,1.4-4.3l-6.6-16.5c-0.5-1.3-1.8-2.2-3.3-2.2c-0.1,0-0.2,0-0.4,0
	l-11.4,1.1c-4.2-11.6-4.3-24.8,0-36.7L59.3,33c0.1,0,0.2,0,0.4,0c1.4,0,2.7-0.9,3.3-2.2l6.6-16.5c0.6-1.6,0-3.4-1.4-4.3L54.9,1.8
	C54.3,1.4,53.7,1.2,53,1.2L53,1.2z"/>
</svg>
