<svg id="Capa_1" data-name="Capa 1" xmlns="http://www.w3.org/2000/svg" xmlns:xlink="http://www.w3.org/1999/xlink" viewBox="0 0 130.9 98.11"><defs><style>.cls-1{fill:url(#GradientFill_1);}.cls-2{fill:url(#GradientFill_1-2);}.cls-3{fill:#0089cf;}</style><radialGradient id="GradientFill_1" cx="54.77" cy="49.05" r="51.99" gradientUnits="userSpaceOnUse"><stop offset="0" stop-color="#0089cf"/><stop offset="0.46" stop-color="#0087cd"/><stop offset="0.63" stop-color="#0180c6"/><stop offset="0.75" stop-color="#0375bb"/><stop offset="0.84" stop-color="#0664aa"/><stop offset="0.92" stop-color="#094e95"/><stop offset="0.99" stop-color="#0e337a"/><stop offset="1" stop-color="#0e3178"/></radialGradient><radialGradient id="GradientFill_1-2" cx="48.17" cy="29.27" r="33.49" xlink:href="#GradientFill_1"/></defs><title>webmark</title><path class="cls-1" d="M59.86,78.33H73v18a1.8,1.8,0,0,0,1.8,1.8h33a1.8,1.8,0,0,0,1.8-1.8V43.56a1.8,1.8,0,0,0-1.8-1.8H96.35V1.8A1.8,1.8,0,0,0,94.55,0H1.8A1.8,1.8,0,0,0,0,1.8V76.53a1.8,1.8,0,0,0,1.8,1.8H36.49V94.51h-4.8a1.8,1.8,0,0,0,0,3.59h33a1.8,1.8,0,0,0,0-3.59h-4.8Zm46.08,16.19H76.57V45.36h29.38Zm-49.67,0H40.08V78.33H56.27ZM73,74.73H3.59V58.54H73ZM73,55H3.59V3.59H92.76V41.76h-18a1.8,1.8,0,0,0-1.8,1.8Z"/><path class="cls-2" d="M87.76,8.59V36.76h-13a6.8,6.8,0,0,0-6.8,6.8V50H8.59V8.59H87.76m2-2H6.59V52H70V43.56a4.8,4.8,0,0,1,4.8-4.8h15V6.59Z"/><path class="cls-3" d="M128.61,62.75A8.75,8.75,0,0,0,114.84,73.3l-1.24,4.53,4.64-1.22a8.74,8.74,0,0,0,4.18,1.06h0a8.75,8.75,0,0,0,6.19-14.93Zm-1.5,9.6a2.42,2.42,0,0,1-1.62,1.14c-.44,0-.85.2-2.87-.6a9.82,9.82,0,0,1-4.09-3.62,4.66,4.66,0,0,1-1-2.48,2.69,2.69,0,0,1,.84-2,.88.88,0,0,1,.64-.3h.46c.17,0,.36,0,.54.41s.68,1.66.74,1.78a.44.44,0,0,1,0,.42,1.59,1.59,0,0,1-.24.4c-.12.14-.25.31-.36.42s-.25.25-.11.49a7.23,7.23,0,0,0,1.33,1.66,6.56,6.56,0,0,0,1.93,1.19c.24.12.38.1.52-.06s.6-.7.76-.94.32-.2.54-.12,1.4.66,1.64.78.4.18.46.28A2,2,0,0,1,127.11,72.35Z"/><path class="cls-3" d="M130.46,27a8.08,8.08,0,1,0-9.34,8V29.38h-2.05V27h2.05V25.27a2.85,2.85,0,0,1,3.05-3.14,12.54,12.54,0,0,1,1.81.16v2h-1a1.17,1.17,0,0,0-1.32,1.26V27h2.24l-.36,2.34h-1.88V35A8.08,8.08,0,0,0,130.46,27Z"/><path class="cls-3" d="M122.39,43.86A4.14,4.14,0,1,0,126.53,48,4.13,4.13,0,0,0,122.39,43.86Zm0,6.83A2.69,2.69,0,1,1,125.08,48a2.7,2.7,0,0,1-2.69,2.69Zm5.28-7a1,1,0,1,1-1-1A1,1,0,0,1,127.66,43.69Zm2.74,1A4.47,4.47,0,0,0,125.72,40c-1.33-.08-5.33-.08-6.66,0a4.47,4.47,0,0,0-4.69,4.68c-.08,1.33-.08,5.33,0,6.66A4.47,4.47,0,0,0,119.05,56c1.33.08,5.33.08,6.66,0a4.47,4.47,0,0,0,4.69-4.69c.08-1.33.08-5.33,0-6.66Zm-1.72,8.09a2.73,2.73,0,0,1-1.54,1.54c-1.06.42-3.59.32-4.76.32s-3.7.09-4.76-.32a2.73,2.73,0,0,1-1.54-1.54c-.42-1.06-.32-3.59-.32-4.76s-.09-3.7.32-4.76a2.73,2.73,0,0,1,1.54-1.54c1.06-.42,3.59-.32,4.76-.32s3.7-.09,4.76.32a2.73,2.73,0,0,1,1.54,1.54c.42,1.06.32,3.59.32,4.76S129.1,51.7,128.68,52.76Z"/><path class="cls-3" d="M130.54,1.87A2.14,2.14,0,0,0,129,.36,50.58,50.58,0,0,0,122.38,0a50.58,50.58,0,0,0-6.65.36,2.14,2.14,0,0,0-1.51,1.52A22.45,22.45,0,0,0,113.87,6a22.45,22.45,0,0,0,.36,4.13,2.11,2.11,0,0,0,1.51,1.49,50.58,50.58,0,0,0,6.65.36,50.58,50.58,0,0,0,6.65-.36,2.11,2.11,0,0,0,1.51-1.49A22.45,22.45,0,0,0,130.9,6,22.45,22.45,0,0,0,130.54,1.87Zm-9.9,6.66V3.47L125.09,6l-4.45,2.53Z"/><path class="cls-3" d="M128.71,86.77c0,.14,0,.28,0,.42A9.29,9.29,0,0,1,114.42,95a6.75,6.75,0,0,0,.79,0,6.54,6.54,0,0,0,4.05-1.39,3.27,3.27,0,0,1-3.05-2.26,4.12,4.12,0,0,0,.62.05,3.45,3.45,0,0,0,.86-.11,3.27,3.27,0,0,1-2.62-3.2v0a3.29,3.29,0,0,0,1.48.41,3.27,3.27,0,0,1-1-4.37,9.28,9.28,0,0,0,6.73,3.42,3.69,3.69,0,0,1-.08-.75,3.27,3.27,0,0,1,5.65-2.23,6.43,6.43,0,0,0,2.07-.79,3.26,3.26,0,0,1-1.44,1.8,6.54,6.54,0,0,0,1.88-.51,7,7,0,0,1-1.64,1.69Z"/><circle class="cls-3" cx="91.26" cy="83.12" r="3.3"/></svg>